<?xml version="1.0" encoding="UTF-8"?>
<svg width="135px" height="66px" viewBox="0 0 135 66" version="1.1" xmlns="http://www.w3.org/2000/svg" xmlns:xlink="http://www.w3.org/1999/xlink">
    <!-- Generator: Sketch 63.1 (92452) - https://sketch.com -->
    <title>suny-logo</title>
    <desc>Created with Sketch.</desc>
    <g id="Comp-tile-3" stroke="none" stroke-width="1" fill="none" fill-rule="evenodd">
        <g id="NEW" transform="translate(-186.000000, -6427.000000)" fill="#FFFFFF" fill-rule="nonzero">
            <g id="2" transform="translate(-272.000000, 0.000000)">
                <g id="Footer" transform="translate(0.000000, 6135.000000)">
                    <g id="suny-logo" transform="translate(458.000000, 292.000000)">
                        <g id="Group">
                            <path d="M32.9665677,0 C14.7583493,0 0,14.759214 0,32.9688734 C0,51.1768035 14.7583493,65.9322707 32.9665677,65.9322707 C51.1750742,65.9322707 65.9302533,51.1768035 65.9302533,32.9688734 C65.9302533,14.759214 51.1750742,0 32.9665677,0 Z M32.9665677,63.0098253 C16.3740524,63.0098253 2.92619214,49.5579301 2.92619214,32.9691616 C2.92619214,16.3780873 16.3740524,2.92763319 32.9665677,2.92763319 C49.5559127,2.92763319 63.0031965,16.3780873 63.0031965,32.9691616 C63.0031965,49.5579301 49.5556245,63.0098253 32.9665677,63.0098253 Z" id="Shape"></path>
                            <g transform="translate(8.646288, 25.650655)" id="Path">
                                <polygon points="33.7940175 15.5564017 27.3320699 5.04193886 27.3320699 15.5564017 25.0237991 15.5564017 25.0237991 0.364008734 27.1323406 0.364008734 33.618786 10.8764541 33.618786 0.364008734 35.9060175 0.364008734 35.9060175 15.5564017"></polygon>
                                <polygon points="43.2017555 10.4867948 43.2017555 15.5564017 40.8710044 15.5564017 40.8710044 10.4412576 35.820131 0.364008734 38.3906725 0.364008734 42.0030917 7.65542358 45.6797817 0.364008734 48.2485939 0.364008734"></polygon>
                                <g>
                                    <path d="M6.14145852,15.9988035 C2.75931878,15.9988035 0.834943231,14.7548908 0.257947598,12.2002009 L0.198576419,11.9338952 L1.29146725,11.7825852 L1.34219214,12.0027773 C1.91428821,14.4335371 4.26780786,14.9428035 6.14145852,14.9428035 C8.21339738,14.9428035 10.4409694,13.8795983 10.4409694,11.5462533 C10.4409694,9.13855022 8.19264629,8.60680349 5.81462882,8.03931878 C3.34265502,7.45569432 0.788253275,6.85103057 0.788253275,4.03522271 C0.788253275,1.19318777 3.41960699,0.186183406 5.66908297,0.186183406 C8.18284716,0.186183406 9.88155459,1.11248908 10.866655,3.0238952 L10.9879913,3.2579214 L9.99770306,3.69081223 L9.89250655,3.48848908 C9.08350218,1.96357205 7.78137118,1.28166812 5.66908297,1.28166812 C4.78168559,1.28166812 1.88373799,1.48110917 1.88373799,4.03579913 C1.88373799,6.00830568 3.84356332,6.47434061 6.11638428,7.01876856 C8.65637555,7.62660262 11.5367424,8.31398253 11.5367424,11.5468297 C11.5364541,14.6079039 8.74024454,15.9988035 6.14145852,15.9988035 L6.14145852,15.9988035 Z"></path>
                                    <path d="M17.8767773,15.9988035 C14.1963406,15.9988035 12.3290306,13.690821 12.3290306,9.14431441 L12.3290306,0.332882096 L13.4279738,0.332882096 L13.4279738,9.14431441 C13.4279738,13.0705939 14.8402009,14.9038952 17.8767773,14.9038952 C20.9142183,14.9038952 22.3264454,13.0705939 22.3264454,9.14431441 L22.3264454,0.332882096 L23.4253886,0.332882096 L23.4253886,9.14431441 C23.4256769,13.7522096 21.6070742,15.9988035 17.8767773,15.9988035 L17.8767773,15.9988035 Z"></path>
                                </g>
                            </g>
                        </g>
                        <g id="Group" transform="translate(70.000000, 26.000000)">
                            <polygon id="Path" points="2.47816143 0.844326923 2.47816143 6.17769231 1.87567265 6.17769231 1.87567265 0.844326923 0.0215695067 0.844326923 0.0215695067 0.271730769 4.33255605 0.271730769 4.33255605 0.844326923"></polygon>
                            <path d="M7.58226457,6.17769231 L7.58226457,3.80307692 C7.58226457,3.00778846 7.34004484,2.58346154 6.47872197,2.58346154 C5.85991031,2.58346154 5.44221973,3.06028846 5.44221973,3.64644231 L5.44221973,6.17769231 L4.87325112,6.17769231 L4.87325112,0.271442308 L5.44221973,0.271442308 L5.44221973,2.47355769 C5.6911435,2.18740385 6.09600897,2.02240385 6.47872197,2.02240385 C7.62977578,2.02240385 8.1523991,2.64836538 8.1523991,3.75807692 L8.1523991,6.17769231 L7.58226457,6.17769231 Z" id="Path"></path>
                            <path d="M12.1710314,4.32692308 L9.36524664,4.32692308 C9.3888565,5.15278846 9.75495516,5.70778846 10.644843,5.70778846 C11.0444619,5.70778846 11.4571973,5.55403846 11.714574,5.23442308 L12.1010762,5.61461538 C11.7390583,6.07153846 11.2275112,6.25961538 10.644843,6.25961538 C9.31511211,6.25961538 8.79452915,5.36538462 8.79452915,4.15384615 C8.79452915,3.015 9.2935426,2.01663462 10.5673094,2.01663462 C11.714574,2.01663462 12.1867713,2.93826923 12.1748206,3.96173077 L12.1710314,4.32692308 Z M10.5673094,2.56615385 C9.81674888,2.56615385 9.44831839,3.06634615 9.3888565,3.77567308 L11.6041031,3.77567308 C11.570583,3.12605769 11.2933857,2.56615385 10.5673094,2.56615385 Z" id="Shape"></path>
                            <path d="M17.0539013,6.25990385 C15.9585202,6.25990385 14.9389238,5.79519231 14.7229372,4.62721154 L15.3085202,4.49596154 C15.4799103,5.36596154 16.2147309,5.69480769 17.0448655,5.69480769 C17.781435,5.69480769 18.5640583,5.31576923 18.5640583,4.49769231 C18.5640583,2.73461538 14.9584529,3.91326923 14.9584529,1.72528846 C14.9584529,0.665769231 15.9276233,0.207692308 16.8760987,0.207692308 C17.8589686,0.207692308 18.5503587,0.522692308 18.9808744,1.43855769 L18.4474664,1.68375 C18.1145964,0.974423077 17.6269507,0.795576923 16.8760987,0.795576923 C16.2759417,0.795576923 15.5466592,1.01740385 15.5466592,1.72557692 C15.5466592,3.24865385 19.1607175,2.21538462 19.1607175,4.49798077 C19.1607175,5.63826923 18.106435,6.25990385 17.0539013,6.25990385 Z" id="Path"></path>
                            <path d="M20.5076457,2.63019231 L20.5076457,5.17903846 C20.5076457,5.61461538 20.6443498,5.62240385 21.0465919,5.62240385 L21.0465919,6.17740385 L20.8174888,6.17740385 C20.1992601,6.17740385 19.9512108,5.74355769 19.9512108,5.17903846 L19.9512108,2.63019231 L19.3909865,2.63019231 L19.3909865,2.07201923 L19.9512108,2.07201923 L19.9512108,0.872019231 L20.5076457,0.872019231 L20.5076457,2.07201923 L21.1456951,2.07201923 L21.1456951,2.63019231 L20.5076457,2.63019231 L20.5076457,2.63019231 Z" id="Path"></path>
                            <path d="M24.2820179,6.26596154 L24.1814574,5.92903846 C23.8284753,6.15951923 23.4046637,6.26596154 22.9843498,6.26596154 C22.2713901,6.26596154 21.593991,5.77759615 21.593991,5.02875 C21.593991,4.25019231 22.2471973,3.79298077 22.9843498,3.79298077 L23.6993498,3.79298077 C23.8634529,3.79298077 24.0185202,3.75778846 24.1377354,3.64615385 L24.1377354,3.21432692 C24.1377354,2.76028846 23.6556278,2.58317308 23.2659193,2.58317308 C22.8106278,2.58317308 22.4217937,2.74990385 22.2713901,3.21432692 L21.745852,3.02192308 C21.9737892,2.30134615 22.5643274,2.02211538 23.2799103,2.02211538 C23.9954933,2.02211538 24.7043722,2.44759615 24.7043722,3.21432692 L24.7043722,5.7075 L24.8320404,6.09519231 L24.2820179,6.26596154 Z M24.1377354,4.22076923 C24.0383408,4.28942308 23.8719058,4.31884615 23.7512332,4.31884615 L22.9732735,4.31884615 C22.5765695,4.31884615 22.1682063,4.59778846 22.1682063,5.02875 C22.1682063,5.44788462 22.5902691,5.71730769 22.9843498,5.71730769 C23.4478027,5.71730769 23.7987444,5.61461538 24.1377354,5.30653846 L24.1377354,4.22076923 Z" id="Shape"></path>
                            <path d="M26.3247085,2.63019231 L26.3247085,5.17903846 C26.3247085,5.61461538 26.4652018,5.62240385 26.8700673,5.62240385 L26.8700673,6.17740385 L26.6339686,6.17740385 C26.0204036,6.17740385 25.7735202,5.74355769 25.7735202,5.17903846 L25.7735202,2.63019231 L25.2033857,2.63019231 L25.2033857,2.07201923 L25.7735202,2.07201923 L25.7735202,0.872019231 L26.325,0.872019231 L26.325,2.07201923 L26.9709193,2.07201923 L26.9709193,2.63019231 L26.3247085,2.63019231 L26.3247085,2.63019231 Z" id="Path"></path>
                            <path d="M30.7111883,4.32692308 L27.9100673,4.32692308 C27.9263901,5.15278846 28.2945291,5.70778846 29.1864574,5.70778846 C29.5860762,5.70778846 29.9961883,5.55403846 30.2518161,5.23442308 L30.6400673,5.61461538 C30.2797982,6.07153846 29.7702915,6.25961538 29.1864574,6.25961538 C27.8625561,6.25961538 27.335852,5.36538462 27.335852,4.15384615 C27.335852,3.015 27.8304933,2.01663462 29.1083408,2.01663462 C30.2518161,2.01663462 30.7275112,2.93826923 30.715852,3.96173077 L30.7111883,4.32692308 Z M29.1083408,2.56615385 C28.3519507,2.56615385 27.9928475,3.06634615 27.9260987,3.77567308 L30.144843,3.77567308 C30.1104484,3.12605769 29.8396637,2.56615385 29.1083408,2.56615385 Z" id="Shape"></path>
                            <path d="M35.2579821,6.25990385 C33.6017937,6.25990385 33.1080269,5.14817308 33.1080269,3.70701923 L33.1080269,0.271442308 L33.6930269,0.271442308 L33.6930269,3.70673077 C33.6930269,4.80028846 33.951278,5.67375 35.2579821,5.67375 C36.5719731,5.67375 36.8238117,4.80057692 36.8238117,3.70673077 L36.8238117,0.271442308 L37.4163903,0.271442308 L37.4163903,3.70673077 C37.4166816,5.14817308 36.9208744,6.25990385 35.2579821,6.25990385 Z" id="Path"></path>
                            <path d="M40.8118386,6.17769231 L40.8118386,3.80307692 C40.8118386,3.00778846 40.5722422,2.56990385 39.7065471,2.56990385 C39.0938565,2.56990385 38.6761659,3.06057692 38.6761659,3.64644231 L38.6761659,6.17769231 L38.1013677,6.17769231 L38.1013677,2.07980769 L38.6761659,2.07980769 L38.6761659,2.47355769 C38.9242152,2.18740385 39.3217937,2.01663462 39.7065471,2.01663462 C40.8643049,2.01663462 41.376435,2.64807692 41.376435,3.75778846 L41.376435,6.17740385 L40.8118386,6.17740385 L40.8118386,6.17769231 Z" id="Path"></path>
                            <path d="M42.8362363,0.965769231 C42.4680564,0.965769231 42.1678027,0.7875 42.1678027,0.571730769 C42.1678027,0.364326923 42.4680564,0.184038462 42.8362363,0.184038462 C43.2034318,0.184038462 43.4943333,0.364326923 43.4943333,0.571730769 C43.4943333,0.787211538 43.2034318,0.965769231 42.8362363,0.965769231 Z M42.3371261,6.17769231 L42.3371261,2.07980769 L43.3200877,2.07980769 L43.3200877,6.17769231 L42.3371261,6.17769231 Z" id="Shape"></path>
                            <polygon id="Path" points="45.5513004 6.17769231 45.008565 6.17769231 43.4555605 2.07980769 44.0656278 2.07980769 45.2778924 5.29932692 46.4983184 2.07980769 47.1127578 2.07980769"></polygon>
                            <path d="M50.6746413,4.32692308 L47.8767265,4.32692308 C47.8953812,5.15278846 48.265852,5.70778846 49.1525336,5.70778846 C49.5536099,5.70778846 49.963722,5.55403846 50.223139,5.23442308 L50.6096413,5.61461538 C50.2511211,6.07153846 49.7357848,6.25961538 49.1525336,6.25961538 C47.8297982,6.25961538 47.3039686,5.36538462 47.3039686,4.15384615 C47.3039686,3.015 47.8061883,2.01663462 49.0738341,2.01663462 C50.2228475,2.01663462 50.6924215,2.93826923 50.686009,3.96173077 L50.6746413,4.32692308 Z M49.0741256,2.56615385 C48.3253139,2.56615385 47.9563004,3.06634615 47.8956726,3.77567308 L50.107713,3.77567308 C50.0762332,3.12605769 49.8048655,2.56615385 49.0741256,2.56615385 Z" id="Shape"></path>
                            <path d="M53.5323094,2.70865385 C53.3612108,2.61057692 53.1469731,2.55836538 52.9653812,2.55836538 C52.4421749,2.55836538 51.9390807,2.86009615 51.9390807,3.43269231 L51.9390807,6.17769231 L51.3759417,6.17769231 L51.3759417,2.07980769 L51.9390807,2.07980769 L51.9390807,2.38875 C52.2221076,2.07980769 52.5395291,2.00653846 52.9653812,2.00653846 C53.2070179,2.00653846 53.5716592,2.06567308 53.7573318,2.23644231 L53.5323094,2.70865385 Z" id="Path"></path>
                            <path d="M55.5443946,6.24634615 C54.7005605,6.24634615 54.0788341,5.94028846 53.8488565,5.09365385 L54.4160762,4.91278846 C54.5658969,5.50153846 54.9544395,5.70778846 55.5443946,5.70778846 C55.9690807,5.70778846 56.5234753,5.51509615 56.5234753,5.01086538 C56.5234753,3.95221154 53.9835202,4.60759615 53.9835202,3.12605769 C53.9835202,2.35413462 54.7422422,2.01663462 55.4219731,2.01663462 C56.1349327,2.01663462 56.6496861,2.26038462 56.9717713,2.90740385 L56.4578924,3.15576923 C56.2334529,2.69884615 55.9195291,2.56586538 55.4216816,2.56586538 C55.0713229,2.56586538 54.5580269,2.69480769 54.5580269,3.12576923 C54.5580269,3.97355769 57.0939014,3.45576923 57.0939014,5.01057692 C57.0941928,5.82894231 56.2975785,6.24634615 55.5443946,6.24634615 Z" id="Path"></path>
                            <path d="M58.363087,0.965769231 C58.0032668,0.965769231 57.6963901,0.7875 57.6963901,0.571730769 C57.6963901,0.364326923 58.0032668,0.184038462 58.363087,0.184038462 C58.7395746,0.184038462 59.0229207,0.364326923 59.0229207,0.571730769 C59.0229207,0.787211538 58.7395746,0.965769231 58.363087,0.965769231 Z M57.8694372,6.17769231 L57.8694372,2.07980769 L58.8464422,2.07980769 L58.8464422,6.17769231 L57.8694372,6.17769231 Z" id="Shape"></path>
                            <path d="M60.1489013,2.63019231 L60.1489013,5.17903846 C60.1489013,5.61461538 60.2838565,5.62240385 60.6884305,5.62240385 L60.6884305,6.17740385 L60.4549552,6.17740385 C59.8361435,6.17740385 59.590426,5.74355769 59.590426,5.17903846 L59.590426,2.63019231 L59.0243722,2.63019231 L59.0243722,2.07201923 L59.590426,2.07201923 L59.590426,0.872019231 L60.1489013,0.872019231 L60.1489013,2.07201923 L60.788991,2.07201923 L60.788991,2.63019231 L60.1489013,2.63019231 L60.1489013,2.63019231 Z" id="Path"></path>
                            <path d="M62.9785874,7.18932692 C62.7768834,7.71663462 62.4002915,8.05125 61.8074215,8.04461538 L61.5599552,8.04461538 L61.5736547,7.47721154 L61.7377578,7.48125 C62.1306726,7.48125 62.2924439,7.34596154 62.4271076,6.98538462 L62.740157,6.17740385 L61.2349552,2.07951923 L61.8406502,2.07951923 L63.0497085,5.37375 L64.2680942,2.07951923 L64.8836996,2.07951923 L62.9785874,7.18932692 Z" id="Path"></path>
                            <path d="M1.99080717,14.9480769 C0.651748879,14.9480769 0.236973094,14.0088462 0.236973094,12.8483654 C0.236973094,11.6775 0.651748879,10.7169231 1.99080717,10.7169231 C3.32665919,10.7169231 3.73618834,11.6775 3.73618834,12.8359615 C3.73618834,14.0088462 3.32665919,14.9480769 1.99080717,14.9480769 Z M1.9788565,11.2791346 C0.976457399,11.2791346 0.806524664,12.0092308 0.806524664,12.8483654 C0.806524664,13.68 0.976457399,14.4011538 1.9788565,14.4011538 C2.98154709,14.4011538 3.15993274,13.68 3.15993274,12.8483654 C3.15964126,12.0092308 2.98970852,11.2791346 1.9788565,11.2791346 Z" id="Shape"></path>
                            <path d="M6.15168161,9.53048077 C5.44221973,9.53048077 5.18047085,9.85615385 5.18047085,10.5288462 L5.18047085,10.7919231 L6.02663677,10.7919231 L6.02663677,11.3480769 L5.18047085,11.3480769 L5.18047085,14.8875 L4.60246637,14.8875 L4.60246637,11.3480769 L4.2220852,11.3480769 L4.2220852,10.7919231 L4.60246637,10.7919231 L4.60246637,10.5366346 C4.60246637,9.54230769 5.13878924,8.97951923 6.15168161,8.97951923 L6.15168161,9.53048077 Z" id="Path"></path>
                            <polygon id="Path" points="12.1710314 14.8872115 9.63049327 10.7950962 9.63049327 14.8872115 8.72136771 14.8872115 8.72136771 8.97951923 9.55558296 8.97951923 12.1010762 13.0675962 12.1010762 8.97951923 13.006704 8.97951923 13.006704 14.8872115"></polygon>
                            <path d="M14.5363901,13.1500962 C14.5579596,13.3771154 14.6075112,13.5969231 14.711278,13.7500962 C14.8535202,13.9681731 15.1648206,14.1308654 15.5705605,14.1308654 C15.9153812,14.1308654 16.1887892,14.0339423 16.4624888,13.7371154 L17.1655381,14.2560577 C16.6965471,14.7715385 16.1686771,14.9653846 15.584843,14.9653846 C14.8954933,14.9795192 14.2953363,14.6893269 13.974417,14.2070192 C13.6768161,13.7731731 13.6526233,13.2008654 13.6526233,12.8301923 C13.6526233,12.4269231 13.686435,11.8854808 13.974417,11.4548077 C14.306704,10.9577885 14.8538117,10.7128846 15.5070179,10.7128846 C16.1039686,10.7128846 16.6111435,10.9693269 16.9341031,11.4582692 C17.2433632,11.9146154 17.2034305,12.6144231 17.1903139,13.1500962 L14.5363901,13.1500962 L14.5363901,13.1500962 Z M16.2004484,11.90625 C16.0287668,11.6656731 15.8084081,11.5479808 15.4994395,11.5479808 C14.9365919,11.5479808 14.6593946,11.83875 14.5626233,12.3147115 L16.2980942,12.3147115 C16.2878924,12.1344231 16.2467937,11.9749038 16.2004484,11.90625 Z" id="Shape"></path>
                            <polygon id="Path" points="22.2238789 14.8872115 21.4470852 14.8872115 20.4365247 12.2498077 19.434417 14.8872115 18.655583 14.8872115 17.2710538 10.7050962 18.2102018 10.7050962 19.0732735 13.34625 20.0608072 10.7050962 20.8177803 10.7050962 21.8076457 13.3554808 22.6882063 10.7050962 23.6267713 10.7050962"></polygon>
                            <polygon id="Path" points="28.1114798 12.9170192 28.1114798 14.8872115 27.1965247 14.8872115 27.1965247 12.8988462 25.2118386 8.97923077 26.2177354 8.97923077 27.6384081 11.8107692 29.0867713 8.97923077 30.0967489 8.97923077"></polygon>
                            <path d="M32.6095964,14.2168269 C32.3041256,14.7031731 31.7322422,14.9656731 31.0758296,14.9656731 C30.4398206,14.9798077 29.8454933,14.7031731 29.5382735,14.2168269 C29.2686547,13.7829808 29.2392152,13.2011538 29.2392152,12.8359615 C29.2392152,12.4427885 29.2724439,11.8854808 29.5382735,11.4585577 C29.8457848,10.9696154 30.4302018,10.7053846 31.0758296,10.7053846 C31.7322422,10.7053846 32.2968386,10.9696154 32.6095964,11.4585577 C32.874843,11.8854808 32.9150673,12.4326923 32.9150673,12.8304808 C32.9150673,13.2008654 32.8870852,13.7829808 32.6095964,14.2168269 Z M31.8523318,11.8973077 C31.7325336,11.6775 31.4565022,11.54625 31.0697085,11.54625 C30.6910762,11.54625 30.4264126,11.6775 30.2946637,11.8973077 C30.1492152,12.1208654 30.1247309,12.4854808 30.1247309,12.8359615 C30.1247309,13.16625 30.1492152,13.5542308 30.2946637,13.7829808 C30.4302018,13.9915385 30.6910762,14.1311538 31.0697085,14.1311538 C31.4562108,14.1311538 31.7322422,13.9915385 31.8523318,13.7829808 C32.0015695,13.5542308 32.0295516,13.1639423 32.0295516,12.8359615 C32.0295516,12.4854808 32.0015695,12.1130769 31.8523318,11.8973077 Z" id="Shape"></path>
                            <path d="M35.69287,11.7034615 C35.4308296,11.5598077 35.288296,11.5384615 35.1273991,11.5384615 C34.7808296,11.5384615 34.3334081,11.7400962 34.3334081,12.1344231 L34.3334081,14.8872115 L33.4790807,14.8872115 L33.4790807,10.7477885 L34.3334081,10.7477885 L34.3334081,10.8773077 C34.5689238,10.76625 34.8443722,10.7048077 35.1273991,10.7048077 C35.4270404,10.7048077 35.69287,10.7532692 36.0773318,10.9228846 L35.69287,11.7034615 Z" id="Path"></path>
                            <polygon id="Path" points="38.9335426 14.8872115 37.3592601 12.6403846 37.3592601 14.8872115 36.4848206 14.8872115 36.4848206 8.97951923 37.3592601 8.97951923 37.3592601 12.5717308 38.4383184 10.7050962 39.3850448 10.7050962 38.2739238 12.6144231 39.9837444 14.8872115 38.9335426 14.8872115"></polygon>
                        </g>
                    </g>
                </g>
            </g>
        </g>
    </g>
</svg>