<svg xmlns="http://www.w3.org/2000/svg" xmlns:xlink="http://www.w3.org/1999/xlink" width="279" height="68" viewBox="0 0 279 68" version="1.1">
    <!-- Generator: Sketch 63.1 (92452) - https://sketch.com -->
    <title>logo-dark</title>
    <desc>Created with Sketch.</desc>
    <g id="Comp-tile-3" stroke="none" stroke-width="1" fill="none" fill-rule="evenodd">
        <g id="NEW" transform="translate(-185.000000, -6255.000000)" fill="#FFFFFF">
            <g id="2" transform="translate(-272.000000, 0.000000)">
                <g id="Footer" transform="translate(0.000000, 6135.000000)">
                    <g id="logo-dark" transform="translate(457.000000, 120.000000)">
                        <g id="Suny-OW_logoBlack">
                            <path d="M0,64.2988461 L1.45446078,63.4063758 C2.48492745,65.3328056 3.67640455,66.2960205 5.03425908,66.2960205 C5.59779554,66.2960205 6.15059798,66.1545313 6.64436326,65.8878786 C7.12739451,65.6429934 7.52992056,65.2675029 7.80900528,64.7995002 C8.06662195,64.3587069 8.20616432,63.852611 8.20616432,63.3356312 C8.19543029,62.7152555 7.99148376,62.1112055 7.6211598,61.6105515 C6.77853861,60.5330569 5.78564103,59.5807258 4.67466914,58.7916514 C3.68713858,58.1114149 2.78548024,57.3060149 1.99116217,56.4026608 C1.40079064,55.6407959 1.0787698,54.6939067 1.07340279,53.72525 C1.06266876,52.9960364 1.25051425,52.2777067 1.61010418,51.6464472 C1.96969412,51.0206296 2.49566148,50.5036499 3.12896913,50.1662526 C3.78911184,49.8016458 4.52439275,49.6111796 5.2757747,49.6220634 C6.07545978,49.6166215 6.86441083,49.8288553 7.55675563,50.2369972 C8.44767994,50.8247215 9.21516294,51.5920283 9.80553447,52.4899405 L8.39937682,53.5783189 C7.94854765,52.9089662 7.38501118,52.3212418 6.7356025,51.8532391 C6.28477332,51.5811445 5.76953999,51.4342134 5.24357262,51.4396553 C4.61026498,51.4124459 3.99842539,51.6464472 3.53686219,52.0817986 C3.10213406,52.4844986 2.86061843,53.0613391 2.87135246,53.6599473 C2.87671947,54.0354378 2.95722468,54.4054865 3.10750107,54.7483257 C3.32218163,55.183677 3.61200038,55.5809351 3.96085629,55.9128905 C4.19163789,56.1360081 4.93228581,56.7182906 6.19353409,57.6597379 C7.37964417,58.4705798 8.41547786,59.4773298 9.26346606,60.6473366 C9.78943343,61.4200852 10.0792522,62.3343231 10.0953947,63.2757704 C10.1007202,64.5328475 9.5854869,65.7300637 8.67309453,66.5789989 C7.75533514,67.5095624 6.5048209,68.0211002 5.21137054,67.9993327 C4.1970049,68.0102165 3.20947434,67.7163543 2.36148613,67.1503975 C1.35785453,66.4103002 0.547435422,65.4307596 0,64.2988461 Z" id="Path"/>
                            <path d="M14.6926285,49.6216216 L16.4885148,49.6216216 L16.4885148,60.4297745 C16.4717308,61.2316158 16.4941095,62.0334572 16.5612454,62.8297302 C16.6283814,63.4589529 16.8409785,64.0659022 17.1878475,64.6004631 C17.5794738,65.1127506 18.0997773,65.5192396 18.698406,65.769815 C19.3361974,66.0816422 20.0299354,66.2431241 20.7404574,66.2486925 C21.3334915,66.2486925 21.9153363,66.1206206 22.4524238,65.8700452 C22.9839166,65.6306065 23.4482735,65.2742325 23.8175212,64.8231968 C24.1979581,64.3498877 24.4776912,63.7986218 24.6287471,63.2083774 C24.7798029,62.2896009 24.8413442,61.3541194 24.8077762,60.4242062 L24.8077762,49.6216216 L26.6092572,49.6216216 L26.6092572,60.4297745 C26.6484198,61.7439034 26.4917693,63.0580322 26.1393056,64.3276143 C25.786842,65.3521893 25.1266719,66.2431241 24.2539048,66.8834835 C23.274839,67.6352098 22.0719868,68.0249938 20.8355667,67.997152 C19.5152266,68.0361304 18.2172652,67.6741882 17.1095222,66.9614403 C16.1136725,66.3210809 15.3751772,65.3521893 15.0283082,64.2218158 C14.7541698,62.9856437 14.6422766,61.7160616 14.6982232,60.4520479 L14.6926285,49.6216216 Z" id="Path"/>
                            <polygon id="Path" points="30.2861842 67.9782775 30.2861842 50.5405405 30.6676772 50.5405405 42.3250133 63.9270312 42.3250133 50.5405405 44.0526316 50.5405405 44.0526316 68 43.6602388 68 32.095551 54.7601362 32.095551 67.9782775"/>
                            <polygon id="Path" points="47.7236842 50.5405405 49.7262171 50.5405405 54.1750876 57.7415493 58.559011 50.5405405 60.5723684 50.5405405 55.0572845 59.65856 55.0572845 68 53.3416009 68 53.3416009 59.6368375"/>
                            <path d="M85.5516021,62.4584275 C85.0810356,63.5633936 84.4025443,64.5623276 83.5599019,65.4050038 C82.7172596,66.2365187 81.7159378,66.8950339 80.621597,67.3303236 C78.3289531,68.2232255 75.8010259,68.2232255 73.508382,67.3303236 C72.4249847,66.9061952 71.4346063,66.2700025 70.5919639,65.4552295 C69.7493215,64.6348759 69.0817736,63.6471032 68.6221505,62.5588789 C67.6536589,60.1257212 67.6810174,57.3967897 68.6932827,54.9803739 C69.1693209,53.8809884 69.8642273,52.8932157 70.7342282,52.0840233 C71.6151725,51.2804116 72.6383811,50.6609609 73.749137,50.259155 C74.9146099,49.829446 76.1457433,49.6173818 77.38782,49.6229624 C78.6681987,49.6006399 79.9431057,49.8573492 81.119522,50.3707678 C82.1755609,50.8395413 83.133109,51.5259596 83.9265061,52.3797971 C84.6816012,53.2336345 85.2725452,54.2325686 85.6555645,55.3152121 C86.0604706,56.4145976 86.2683953,57.5809507 86.2683953,58.7584652 C86.2902822,60.0308504 86.0440555,61.2920743 85.5516021,62.4584275 Z M82.8704673,55.7114374 C82.635184,54.7236646 82.246693,53.7861176 81.7214095,52.9211189 C81.2344278,52.1063459 80.5778234,51.4087662 79.8008414,50.8730251 C78.9910293,50.3317033 78.0334811,50.0582521 77.0649895,50.0861553 C76.0964979,50.0638327 75.1444215,50.3372839 74.3291376,50.8730251 C73.5521557,51.397605 72.9010229,52.0951846 72.419513,52.9099576 C71.9051728,53.7861176 71.5330969,54.7459872 71.3251722,55.7449212 C71.0898889,56.7996616 70.9695114,57.8767245 70.9695114,58.9537874 C70.9640397,60.0587536 71.1008323,61.1525584 71.3634741,62.2240407 C71.5932857,63.2118135 71.9817767,64.1605218 72.5234753,65.0143592 C73.0214004,65.7956484 73.6834765,66.4541636 74.4604585,66.939679 C75.2757424,67.430775 76.2168754,67.6819037 77.1634802,67.6595811 C78.1155566,67.6874843 79.0566897,67.4084525 79.8446151,66.8615501 C80.6161253,66.3202283 81.2617863,65.617068 81.7432963,64.802295 C82.2685798,63.926135 82.6515991,62.9662654 82.8814107,61.9673314 C83.133109,60.9404942 83.2644299,59.8801732 83.2644299,58.8198522 C83.2644299,57.7706924 83.1276373,56.7271133 82.8704673,55.7114374 Z" id="Shape"/>
                            <path d="M102.882615,68 L87.1875,68 L87.1875,67.7561528 C87.6025413,67.6911269 88.0066605,67.5881692 88.3998575,67.4418609 C88.7602882,67.3226467 89.0824913,67.1113124 89.3391616,66.8349523 C89.4374609,66.7103193 89.5084548,66.5640109 89.5466823,66.4122838 C89.6122151,66.2009496 89.6559037,65.9841965 89.683209,65.7674434 C89.7159754,65.529015 89.7432808,65.2743302 89.7705861,65.0033889 C89.7978915,64.7324475 89.8033525,64.4615062 89.8033525,64.217659 C89.8033525,63.9738118 89.8033525,63.6757763 89.8033525,63.2964585 C89.8033525,62.9171406 89.8033525,62.4836345 89.8033525,62.0230342 C89.8033525,61.5624339 89.8033525,61.090996 89.8033525,60.6033016 L89.8033525,53.6401094 C89.8033525,53.3529116 89.8033525,53.0982267 89.7705861,52.8327042 C89.7487418,52.6051135 89.7105144,52.3829416 89.6559037,52.1607697 C89.6176762,51.9927861 89.5466823,51.8356401 89.4374609,51.7001694 C89.1917127,51.4129716 88.8749706,51.1962186 88.5200011,51.0715856 C88.1322651,50.9252772 87.7281459,50.8277384 87.3131046,50.7789689 L87.3131046,50.5405405 L95.1060515,50.5405405 L95.1060515,50.7789689 C94.8985309,50.8114819 94.6473217,50.8602513 94.3524239,50.9252772 C94.0629872,50.9903032 93.7790115,51.0932609 93.5223412,51.2395692 C93.2547488,51.3912963 93.0253839,51.6026306 92.8506296,51.8573154 C92.6376479,52.1770262 92.5338876,52.5563441 92.5448097,52.9410807 C92.5448097,53.4829634 92.5120433,54.0248461 92.5065822,54.496284 C92.5011211,54.9677219 92.5065822,55.4229034 92.4792769,55.8780848 C92.4519715,56.3332662 92.4792769,56.7992853 92.4792769,57.2815609 L92.4792769,61.6979046 C92.4792769,62.1205731 92.4792769,62.5486604 92.4792769,62.9930042 C92.4792769,63.437348 92.4792769,63.93588 92.4792769,64.4886003 C92.4792769,65.0413207 92.5120433,65.4965021 92.5393486,65.96794 C92.5338876,66.3310014 92.6267258,66.688644 92.7960189,67.0083547 C92.9052403,67.1167313 93.036306,67.2034325 93.1837549,67.2522019 C93.4131198,67.344322 93.6534069,67.4147667 93.893694,67.4581173 C94.1722086,67.5123056 94.4725674,67.561075 94.8002316,67.6044257 C95.1224348,67.6423574 95.450099,67.6640327 95.7777632,67.6640327 L96.4003251,67.6640327 L97.3396292,67.6152633 C97.6836766,67.5881692 98.0331851,67.5556562 98.3936157,67.5068868 C98.7158188,67.4635362 99.0325609,67.3985102 99.3438419,67.311809 C99.9281764,67.1709195 100.479744,66.9324912 100.982163,66.6073616 C101.391743,66.3255826 101.763096,65.9841965 102.074377,65.5994598 C102.380197,65.2201419 102.642328,64.8028923 102.85531,64.3639673 C103.068292,63.9196235 103.270351,63.4536044 103.46695,62.9713289 L103.707237,63.0417736 L102.882615,68 Z" id="Path"/>
                            <path d="M123.434045,62.2507564 C123.169672,63.1085283 122.762096,63.9120109 122.222335,64.6286305 C121.732143,65.269245 121.131796,65.8175676 120.448832,66.2573114 C119.782391,66.6916263 119.060873,67.0390783 118.306308,67.2996672 C117.546235,67.5602562 116.758624,67.7394111 115.959997,67.8425608 C115.183401,67.9457106 114.401297,67.9945711 113.619193,68 L104.625,68 L104.625,67.7556979 C105.038083,67.7068374 105.44015,67.6036876 105.820187,67.4408196 C106.150653,67.321383 106.448073,67.1313702 106.695923,66.887068 C106.795063,66.7676314 106.855648,66.6264791 106.877679,66.4744689 C106.921741,66.2790272 106.954788,66.0618697 106.987835,65.8175676 C107.020881,65.5732654 107.04842,65.3126765 107.064943,65.0412297 C107.081467,64.7697828 107.064943,64.498336 107.064943,64.2377471 C107.064943,63.9771581 107.064943,63.6948534 107.064943,63.3148279 C107.064943,62.9348023 107.064943,62.5004874 107.092482,62.0390278 C107.120021,61.5775682 107.092482,61.1052508 107.092482,60.6166465 L107.092482,53.5970317 C107.092482,53.3255849 107.081467,53.059567 107.053928,52.7881202 C107.031897,52.5601049 106.99885,52.3266606 106.943772,52.1040742 C106.910726,51.9303483 106.833617,51.7674802 106.723462,51.6317568 C106.492135,51.3494521 106.1837,51.1377235 105.83671,51.0237159 C105.456674,50.9042793 105.07113,50.8228452 104.67457,50.7794137 L104.67457,50.5405405 L107.659783,50.5405405 L112.368929,50.5405405 L113.944152,50.5405405 C114.494929,50.5405405 115.045707,50.5405405 115.596484,50.6165457 C116.152769,50.6599771 116.703546,50.7414112 117.248816,50.8554189 C117.799593,50.9694265 118.339355,51.1431525 118.851578,51.3657389 C119.545557,51.6643304 120.195474,52.038927 120.801329,52.4840998 C121.412692,52.9455594 121.946946,53.4938819 122.387568,54.1127807 C122.866744,54.7751109 123.235765,55.5080173 123.489122,56.2843553 C123.775527,57.1909876 123.913221,58.1410515 123.896698,59.0911154 C123.902205,60.1606158 123.747988,61.2246874 123.434045,62.2507564 Z M120.399262,56.3440736 C120.118365,55.4808727 119.699775,54.6665322 119.165521,53.9281969 C118.64779,53.2170062 118.014396,52.5981074 117.292878,52.0932164 C116.587883,51.5991831 115.77824,51.268018 114.924535,51.1214367 C114.561022,51.0508606 114.192002,50.9965712 113.822981,50.9639976 C113.338297,50.9205661 112.848105,50.8988503 112.363421,50.9042793 C112.170649,50.9042793 111.955846,50.9042793 111.724519,50.9042793 C111.498701,50.9097082 111.272882,50.925995 111.047063,50.9531397 L110.430193,51.012858 C110.275975,51.0237159 110.121757,51.0508606 109.973048,51.0834342 C109.890431,51.8814878 109.840861,52.972704 109.824338,54.340796 C109.807814,55.708888 109.824338,57.3918583 109.824338,59.3191307 L109.824338,62.1638934 C109.824338,63.0053785 109.824338,63.6948534 109.824338,64.2268892 C109.824338,64.4549045 109.824338,64.7046356 109.862892,64.9706535 C109.901447,65.2366714 109.91797,65.5135471 109.951016,65.7469914 C109.978555,65.9804357 110.033633,66.208451 110.110742,66.4256084 C110.160312,66.5939055 110.248436,66.7459157 110.369607,66.8762102 C110.705581,67.2073753 111.146203,67.4245327 111.614364,67.4951089 C112.082525,67.5819719 112.556193,67.6308323 113.029862,67.6308323 C113.442945,67.6308323 113.867043,67.6308323 114.302157,67.571114 C114.71524,67.5331115 115.122815,67.4571064 115.519375,67.3376698 C117.18823,66.9196417 118.620251,65.866428 119.501495,64.411473 C120.432308,62.7773632 120.889454,60.9260959 120.82336,59.0531128 C120.828868,58.1356226 120.685666,57.2181323 120.399262,56.3440736 Z" id="Shape"/>
                            <path d="M154.07824,50.1963016 C153.897581,50.2987198 153.727871,50.4295875 153.574584,50.5775249 C153.525314,50.628734 153.454145,50.7140825 153.355604,50.8335704 C153.22969,50.9928876 153.114725,51.1578947 153.010709,51.3285917 C152.851948,51.5903272 152.715086,51.8634424 152.594646,52.1422475 C152.446834,52.4779516 152.293548,52.8876245 152.129313,53.3769559 C151.866536,54.2133713 151.565438,55.1351351 151.220543,56.1422475 C150.881123,57.1550498 150.530755,58.1906117 150.180386,59.2603129 C149.830017,60.3300142 149.474173,61.4054054 149.112855,62.4864865 C148.751538,63.5675676 148.417592,64.5860597 148.111019,65.5533428 L147.081811,68 L146.835458,68 C146.397497,66.7766714 145.981433,65.6045519 145.598217,64.4836415 C145.215002,63.3627312 144.848209,62.2816501 144.503315,61.2460882 C144.15842,60.2105263 143.813526,59.2091038 143.485055,58.230441 C143.156584,57.2517781 142.822639,56.2901849 142.477745,55.3399716 C142.220442,56.1194879 141.930293,56.9388336 141.645618,57.7980085 C141.360944,58.6571835 141.059845,59.5049787 140.764222,60.4096728 C140.468598,61.314367 140.178449,62.1621622 139.882825,63.0213371 C139.587201,63.8805121 139.302526,64.7283073 139.023326,65.5021337 L137.928423,68 L137.638274,68 C137.129144,66.6230441 136.647387,65.314367 136.203952,64.0739687 L134.906492,60.4950213 L133.69115,57.1607397 C133.302459,56.0853485 132.908294,55.0156472 132.514129,53.940256 C132.399164,53.6159317 132.300623,53.3371266 132.207556,53.0981508 C132.11449,52.859175 132.037846,52.6429587 131.966678,52.4381223 C131.895509,52.2332859 131.813391,52.0398293 131.731274,51.8691323 C131.649156,51.6984353 131.561564,51.487909 131.463023,51.3001422 C131.413752,51.197724 131.342583,51.0725462 131.254991,50.9189189 C131.150975,50.7482219 131.019587,50.6002845 130.871775,50.4694168 C130.691116,50.3157895 130.494034,50.1906117 130.286002,50.0881935 C130.006802,49.9687055 129.705704,49.9061166 129.404605,49.9004267 L129.404605,49.6216216 L136.324391,49.6216216 L136.324391,49.8719772 C136.182054,49.8776671 136.045191,49.8947368 135.908328,49.9231863 C135.700296,49.9630156 135.492265,50.0256046 135.295182,50.1052632 C135.087151,50.1906117 134.901017,50.3214794 134.747731,50.4864865 C134.58897,50.6742532 134.506852,50.9246088 134.517801,51.1749644 C134.561597,51.5334282 134.64919,51.886202 134.775103,52.227596 C134.944813,52.7795164 135.169268,53.4509246 135.448469,54.2418208 C135.727669,55.0327169 136.034242,55.8975818 136.368187,56.8250356 C136.702132,57.7581792 137.036078,58.6799431 137.370023,59.5903272 C137.703968,60.4950213 138.02149,61.3485064 138.317114,62.1337127 C138.612738,62.9189189 138.864565,63.5732575 139.023326,64.0853485 C139.072597,63.9487909 139.198511,63.5960171 139.390119,63.027027 L140.129178,60.8876245 L141.109116,57.9857752 C141.464959,56.9046942 141.826277,55.7837838 142.204019,54.6116643 C141.957666,53.9288762 141.738685,53.3314367 141.541603,52.8136558 C141.34452,52.2958748 141.131014,51.7951636 140.906559,51.3001422 C140.829916,51.1522048 140.747798,51.0042674 140.649257,50.8677098 C140.523343,50.6970128 140.375531,50.5490754 140.205821,50.4238976 C139.992315,50.2645804 139.756911,50.1394026 139.505083,50.0654339 C139.182087,49.9630156 138.842667,49.9061166 138.503247,49.9004267 L138.503247,49.6216216 L146.167567,49.6216216 L146.167567,49.8719772 L145.620116,49.9516358 C145.362813,49.9857752 145.105511,50.0483642 144.859158,50.1394026 C144.60733,50.230441 144.377401,50.3669986 144.169369,50.5376956 C143.977761,50.685633 143.862797,50.9246088 143.868271,51.1749644 C143.928491,51.5277383 144.016083,51.8691323 144.136522,52.2048364 C144.317181,52.7738265 144.541636,53.5021337 144.820837,54.344239 C145.100037,55.1863442 145.412084,56.0967283 145.751504,57.0810811 C146.090924,58.0654339 146.424869,59.0099573 146.731442,59.9260313 C147.038015,60.8421053 147.322689,61.6330014 147.579992,62.3726885 L148.127443,63.9374111 C148.176714,63.8179232 148.264306,63.5675676 148.384745,63.1863442 C148.505184,62.8051209 148.663945,62.3385491 148.850079,61.7866287 C149.036212,61.2347084 149.244244,60.6201991 149.463224,59.9374111 C149.682205,59.254623 149.90666,58.5661451 150.125641,57.8605974 C150.344621,57.1550498 150.569076,56.455192 150.788057,55.7496444 C151.007037,55.0440967 151.209594,54.3840683 151.390253,53.7752489 C151.565438,53.2176387 151.696826,52.6486486 151.778944,52.0682788 C151.811791,51.715505 151.828214,51.4480797 151.828214,51.2773826 C151.839163,51.0497866 151.757046,50.8278805 151.609234,50.6571835 C151.450473,50.4864865 151.264339,50.3499289 151.061782,50.2475107 C150.842802,50.1337127 150.612872,50.0483642 150.377468,49.9914651 C150.158488,49.940256 149.939507,49.9004267 149.715052,49.8776671 L149.715052,49.6273115 L155.101974,49.6273115 L155.101974,49.8776671 C154.740656,49.9061166 154.390287,50.0142248 154.07824,50.1963016 Z" id="Path"/>
                            <path d="M171.31641,68 L156.019737,68 L156.019737,67.7561528 C156.416255,67.6965457 156.807189,67.593588 157.181368,67.4418609 C157.522039,67.3063902 157.823616,67.1004748 158.069346,66.8349523 C158.169872,66.7103193 158.236889,66.5640109 158.270397,66.4122838 C158.32066,66.2280437 158.365338,66.0112906 158.410017,65.7674434 C158.454695,65.5235962 158.477034,65.2743302 158.493788,65.0033889 C158.510542,64.7324475 158.521712,64.4615062 158.521712,64.217659 C158.521712,63.9738118 158.521712,63.6757763 158.521712,63.2964585 C158.521712,62.9171406 158.521712,62.4836345 158.521712,62.0230342 C158.521712,61.5624339 158.521712,61.090996 158.521712,60.6033016 L158.521712,54.4691899 C158.521712,54.1765732 158.521712,53.8785378 158.521712,53.5696646 C158.521712,53.2607915 158.521712,52.9735937 158.471449,52.6972335 C158.454695,52.4479675 158.415601,52.1987015 158.348584,51.9548543 C158.309491,51.7814518 158.231304,51.618887 158.114024,51.4834164 C157.901803,51.244988 157.622565,51.0770044 157.309818,50.9848843 C156.941223,50.8981831 156.567044,50.8277384 156.192865,50.7789689 L156.192865,50.5405405 L169.992821,50.5405405 L171.66825,54.5396346 L171.422521,54.6588488 C170.406093,53.3149798 169.110428,52.1878638 167.619295,51.3642022 C167.111081,51.1799621 166.580529,51.0661667 166.044391,51.0228161 C165.11732,50.9144396 164.184664,50.8656701 163.252008,50.8765078 C162.900168,50.8765078 162.542743,50.8765078 162.162979,50.9144396 C161.889326,50.9252772 161.621257,50.9577902 161.353188,51.0011408 C161.319679,51.2558257 161.291756,51.7922895 161.263832,52.6267888 C161.235908,53.4612881 161.230323,54.371651 161.230323,55.4391598 L161.230323,56.9943631 C161.230323,57.4116127 161.230323,57.7584176 161.230323,58.0239401 C161.230323,58.2894626 161.230323,58.4953781 161.230323,58.6416864 L161.230323,58.9072089 L161.732952,58.9072089 C161.978682,58.9072089 162.291429,58.9072089 162.593006,58.9072089 L163.57034,58.8476018 C163.843994,58.8259265 164.112062,58.7879947 164.380131,58.7338064 C164.821328,58.6471052 165.240185,58.4899592 165.631119,58.2732062 C165.943865,58.0943849 166.223104,57.8559565 166.44091,57.5741775 C166.658715,57.2815609 166.826258,56.9564313 166.943538,56.6150452 C167.077573,56.214052 167.189268,55.8022212 167.278624,55.3903904 L167.580202,55.3903904 L167.580202,63.030936 L167.278624,63.030936 C167.133421,62.4727968 166.932369,61.9254953 166.669885,61.405288 C166.457664,60.9501065 166.161671,60.5274381 165.804246,60.1697955 C165.519423,59.9367859 165.189922,59.7579647 164.843667,59.6279128 C164.424809,59.4707669 163.978028,59.3840656 163.531247,59.3623903 L162.989524,59.2702703 L162.486895,59.2702703 L161.336434,59.2702703 C161.302925,59.6008187 161.286171,59.9313671 161.291756,60.2619155 L161.291756,63.1718255 C161.291756,63.4319291 161.291756,63.6811952 161.291756,63.9142047 C161.291756,64.1472143 161.291756,64.3477108 161.291756,64.5102756 C161.291756,65.0521583 161.336434,65.5127586 161.381112,65.9733588 C161.392281,66.3364202 161.487222,66.688644 161.665935,67.0083547 C161.950758,67.2955525 162.336107,67.468955 162.743795,67.4906303 C163.352534,67.593588 163.972443,67.6423574 164.592352,67.6369386 C164.87159,67.6369386 165.2346,67.6369386 165.681381,67.6098445 C166.144917,67.593588 166.608453,67.5556562 167.066403,67.4906303 C167.574617,67.4310232 168.071661,67.3063902 168.540781,67.1167313 C169.009902,66.9162347 169.451098,66.6507122 169.842032,66.3255826 C170.288813,65.9516835 170.696501,65.5344339 171.053926,65.0792524 C171.495123,64.5102756 171.90281,63.9142047 172.26582,63.2964585 L172.539474,63.3669032 L171.31641,68 Z" id="Path"/>
                            <path d="M185.86749,65.0641269 C185.554255,65.6978447 185.106005,66.2481785 184.560544,66.6817749 C183.971878,67.1487249 183.291401,67.4878195 182.56772,67.6768231 C181.741427,67.8991802 180.888131,68.0103588 180.029435,67.9992409 C179.348959,68.0047998 178.668482,67.9603284 177.998807,67.8547088 C177.523554,67.7768838 177.053701,67.6545874 176.60005,67.4933785 C176.308417,67.3877588 176.032986,67.2599035 175.762956,67.1042535 C175.660344,67.0264285 175.53613,66.9652803 175.411916,66.9319267 C175.363311,66.9319267 175.260699,67.0319874 175.098681,67.2321088 C174.936663,67.4322302 174.790847,67.6212338 174.666633,67.7880016 L174.445208,67.7880016 L174.375,62.8349967 L174.618027,62.8349967 C174.758443,63.2852698 174.936663,63.7244252 175.158088,64.1413448 C175.374112,64.5582644 175.62254,64.9585072 175.89257,65.3365143 C176.140998,65.6922857 176.42723,66.0202625 176.740466,66.3204446 C176.999695,66.5705964 177.285927,66.7873946 177.599162,66.9652803 C177.944801,67.1487249 178.306641,67.298816 178.679283,67.4099945 C180.121245,67.8936213 181.703623,67.5989981 182.886356,66.6261857 C183.63704,65.9368786 184.047486,64.9362715 183.998881,63.9023109 C184.004281,63.4853913 183.928673,63.0684716 183.777456,62.6849056 C183.642441,62.345811 183.442618,62.0400699 183.18879,61.7788003 C182.929561,61.5119718 182.627127,61.2896146 182.30309,61.1172879 C181.957451,60.9282843 181.595611,60.7615165 181.222969,60.6225433 C180.834125,60.4724522 180.499288,60.3445969 180.207655,60.2445361 C179.916022,60.1444754 179.667594,60.0499737 179.397564,59.9610308 L178.625277,59.6886433 C178.360648,59.5941416 178.042012,59.4774041 177.66937,59.327313 C177.237321,59.1549862 176.832276,58.9270702 176.459634,58.6435648 C176.076191,58.3545006 175.735953,58.009847 175.44432,57.6207221 C175.152687,57.2260382 174.915061,56.7924418 174.742241,56.3310507 C174.564021,55.847424 174.477612,55.3415615 174.477612,54.8245812 C174.46141,54.0240955 174.623428,53.2347277 174.952865,52.5120671 C175.255299,51.8783493 175.698149,51.3280154 176.238209,50.894419 C176.789071,50.4552637 177.420942,50.1272869 178.090617,49.9327244 C179.419166,49.5658352 180.817923,49.5213637 182.168075,49.810428 C182.600124,49.9049298 183.021371,50.043903 183.431817,50.2217887 C183.696447,50.3329672 183.944875,50.4663815 184.182501,50.6331494 C184.268911,50.7054154 184.366122,50.7665636 184.463333,50.816594 C184.511938,50.816594 184.609149,50.7165333 184.765767,50.5164119 C184.922384,50.3162905 185.057399,50.121728 185.187014,49.9216066 L185.451644,49.9216066 L185.451644,54.5243991 L185.187014,54.5243991 C184.987192,53.9573884 184.733363,53.4126134 184.43633,52.8956331 C184.133896,52.367535 183.772055,51.8839082 183.356208,51.4503118 C182.956564,51.0278333 182.492111,50.6776208 181.979054,50.4219101 C181.444394,50.1495226 180.855728,50.0161083 180.261661,50.0216673 C179.781007,50.0161083 179.305754,50.0939333 178.852103,50.2440244 C178.425455,50.3829976 178.031211,50.6109137 177.690972,50.9166547 C177.356135,51.2223958 177.091505,51.6059618 176.913285,52.0284403 C176.724264,52.5065082 176.627053,53.0179295 176.637854,53.5349099 C176.60005,54.3187187 176.880881,55.0802919 177.410141,55.6473026 C177.977204,56.2143132 178.663081,56.6479096 179.408365,56.9202971 C179.732402,57.0537114 180.034836,57.1648899 180.315667,57.2649507 L181.14736,57.5540149 L181.979054,57.8375203 L182.859353,58.165497 C183.853064,58.5101506 184.733363,59.1327505 185.403038,59.9665897 C186.429154,61.4563825 186.591172,63.4020073 185.835087,65.053009 L185.86749,65.0641269 Z" id="Path"/>
                            <path d="M206.400175,54.604154 C206.26389,54.2994465 206.10489,53.9834535 205.917498,53.6561751 C205.730105,53.3288966 205.542713,53.0241891 205.349642,52.7364097 C205.156571,52.4486304 204.969178,52.1721365 204.781786,51.9407845 C204.639822,51.7376462 204.480822,51.5457933 204.299109,51.3765113 C203.981109,51.0605183 203.594967,50.8291663 203.163397,50.7050262 C202.64097,50.5808861 202.107185,50.518816 201.573401,50.5131733 C201.255401,50.5131733 200.971473,50.5131733 200.738653,50.5131733 L200.023154,50.5131733 L198.319587,50.5131733 C198.319587,50.9363782 198.319587,51.5062941 198.319587,52.2059929 C198.319587,52.9056917 198.319587,53.6900314 198.319587,54.4630857 L198.319587,64.3378669 C198.319587,64.8287846 198.319587,65.2914886 198.359337,65.7429072 C198.353658,66.0758284 198.438837,66.3974641 198.603515,66.6852434 C198.85905,67.0576637 199.239513,67.3285149 199.682441,67.4470123 C200.096976,67.5655096 200.51151,67.6670788 200.937402,67.7460771 L200.937402,68 L192.652386,68 L192.652386,67.7460771 C193.083956,67.6952925 193.509848,67.6106515 193.924383,67.4977968 C194.390025,67.3341576 194.804559,67.0463783 195.11688,66.6626725 C195.219094,66.5441751 195.281558,66.3974641 195.309951,66.2451103 C195.355379,66.0306865 195.383772,65.81062 195.406486,65.5905534 C195.434879,65.3422732 195.451915,65.0770648 195.457594,64.7949282 C195.457594,64.5071488 195.457594,64.230655 195.457594,63.9598038 C195.457594,63.6889527 195.457594,63.3955306 195.457594,63.0231103 C195.457594,62.65069 195.457594,62.2105569 195.457594,61.7365674 C195.457594,61.2625779 195.457594,60.7773029 195.457594,60.2694571 L195.457594,50.5131733 L193.754026,50.5131733 L193.055563,50.5131733 C192.811385,50.5131733 192.527458,50.5131733 192.20378,50.5131733 C191.664317,50.5131733 191.130532,50.5921715 190.613783,50.7445253 C190.187892,50.8912363 189.80175,51.1338738 189.478072,51.4498668 C189.302036,51.6078633 189.143037,51.7884307 189.006751,51.9802836 C188.830716,52.2172784 188.643324,52.4712013 188.438896,52.7533379 C188.234468,53.0411173 188.041397,53.3345393 187.87104,53.6448896 C187.706362,53.9439544 187.564398,54.2599474 187.450827,54.5815831 L187.223684,54.5082276 L187.984611,49.7062626 C188.376432,49.7909036 188.734181,49.8586164 189.063537,49.909401 C189.540536,49.971471 190.017535,50.0053274 190.500212,50.0109701 L192.20378,50.0504693 L193.674526,50.0504693 L198.506979,50.0504693 L199.977726,50.0504693 L201.454151,50.0504693 L203.157718,50.0504693 C203.62336,50.0448265 204.089002,49.9996847 204.543287,49.909401 C204.906714,49.8360454 205.287178,49.740119 205.678998,49.6216216 L206.496711,54.5477267 L206.400175,54.604154 Z" id="Path"/>
                            <path d="M222.77102,64.6311089 C222.603278,65.1042357 222.365192,65.5431606 222.067584,65.9364829 C221.78621,66.2956033 221.461547,66.6148214 221.099007,66.8884369 C220.763522,67.1392512 220.400982,67.3444628 220.016798,67.4926712 C219.351239,67.7377851 218.658626,67.8859935 217.95519,67.9258958 C217.197643,67.9771987 216.461741,68 215.752894,68 L207.414474,68 L207.414474,67.7434854 C207.80948,67.6807819 208.193664,67.5667754 208.561615,67.4128667 C208.902511,67.2760589 209.20553,67.0594466 209.449027,66.7744305 C209.546425,66.643323 209.611358,66.4894143 209.643824,66.3298053 C209.757456,65.8452778 209.8278,65.3493496 209.860266,64.8477212 C209.860266,64.5684053 209.860266,64.2776888 209.860266,64.0211743 C209.860266,63.7646597 209.860266,63.4511419 209.860266,63.0521193 C209.860266,62.6530967 209.860266,62.1970708 209.860266,61.7125433 C209.860266,61.2280158 209.860266,60.7320877 209.860266,60.2190586 L209.860266,56.2630342 C209.860266,55.8925131 209.860266,55.5048912 209.860266,55.1229695 C209.860266,54.7410478 209.860266,54.2793216 209.860266,53.7719928 C209.860266,53.4641754 209.860266,53.1563579 209.833211,52.8371398 C209.806156,52.5179217 209.789923,52.2215049 209.752045,51.9307884 C209.714168,51.6400719 209.660057,51.3607561 209.605947,51.1555444 C209.56807,50.9731341 209.486904,50.8021244 209.373272,50.6596163 C209.178474,50.4145024 208.929566,50.2149911 208.648192,50.0895839 C208.318118,49.9755775 207.977222,49.9071736 207.630915,49.8729717 L207.630915,49.6221574 L215.790772,49.6221574 C216.380576,49.6164571 216.964968,49.6563594 217.549361,49.7361639 C218.106699,49.8102681 218.647803,49.9527762 219.172675,50.1579878 C219.962687,50.4544046 220.660712,50.9617334 221.207228,51.6343716 C221.753743,52.346912 222.035118,53.2418628 222.002652,54.1596148 C222.04594,55.1799727 221.667167,56.1661287 220.974553,56.8786691 C220.222418,57.6026102 219.297129,58.0814373 218.296086,58.269548 L218.296086,58.3721538 C218.885889,58.4405577 219.464871,58.5887661 220.016798,58.816779 C220.568725,59.0390916 221.077363,59.3526094 221.531891,59.7459317 C221.975596,60.1278534 222.343547,60.6009803 222.6141,61.1368107 C222.884652,61.7011427 223.025339,62.3281782 223.014517,62.9609141 C223.03075,63.5309465 222.944173,64.0952785 222.77102,64.6311089 Z M218.636981,51.9022868 C218.26903,51.2752512 217.733337,50.7793231 217.100245,50.4715056 C216.212833,50.1009846 215.2659,49.9299749 214.313556,49.9641768 C214.005127,49.9641768 213.696697,49.9812778 213.393679,50.0154797 C213.182648,50.038281 212.971617,50.0781833 212.765997,50.1408869 C212.765997,50.2434927 212.733531,50.3346978 212.717298,50.4202027 C212.701065,50.5057076 212.690243,50.6140137 212.679421,50.7394208 C212.668599,50.8648279 212.679421,51.024437 212.679421,51.2125476 C212.679421,51.4006583 212.679421,51.6457722 212.641543,51.9535897 C212.641543,52.523622 212.614488,53.2019605 212.603666,53.9145009 C212.592844,54.6270414 212.603666,55.3110802 212.603666,55.960917 L212.603666,58.4063558 L213.961838,58.4063558 C214.329789,58.4063558 214.632808,58.4063558 214.854661,58.4063558 C216.072146,58.4234567 217.251754,57.9560302 218.160809,57.1009817 C218.907534,56.3428387 219.313362,55.2882789 219.291718,54.1938168 C219.30254,53.3786705 219.075276,52.5749249 218.636981,51.9022868 Z M219.97351,61.866452 C219.816589,61.4332275 219.605558,61.0285045 219.340417,60.6636838 C219.075276,60.2988631 218.756024,59.979645 218.398895,59.7231305 C218.030944,59.4552153 217.625116,59.2443033 217.197643,59.0960949 C216.856748,58.9820884 216.499619,58.8965836 216.14249,58.8566813 C215.736661,58.8053784 215.330833,58.7825771 214.919593,58.7882774 L212.5712,58.7882774 L212.5712,61.9804585 C212.5712,62.4535854 212.5712,62.8925103 212.5712,63.2915329 C212.5712,63.6905555 212.5712,64.0382753 212.5712,64.3289917 C212.5712,64.9731283 212.598255,65.5032584 212.652365,65.919382 C212.679421,66.289903 212.798464,66.6490234 213.004083,66.9568408 C213.182648,67.1677528 213.409912,67.3273618 213.65882,67.4242673 C214.064648,67.5724757 214.492121,67.6408796 214.919593,67.6180783 C215.428232,67.612378 215.93687,67.5781761 216.445508,67.5154725 C217.002846,67.4470686 217.54395,67.2646583 218.041766,66.9796421 C218.685681,66.6376227 219.226785,66.1245936 219.616381,65.4861574 C219.995154,64.8135192 220.18454,64.0382753 220.157485,63.2573309 C220.173718,62.7842041 220.114197,62.3167776 219.97351,61.866452 Z" id="Shape"/>
                            <path d="M241.767079,50.3856446 C241.390674,50.6552998 241.107006,51.0316935 240.948807,51.4698832 C240.883345,51.6496533 240.839704,51.840659 240.812428,52.0316648 C240.774242,52.30132 240.736056,52.5934464 240.703325,52.9586045 C240.670595,53.3237625 240.648774,53.6833028 240.632409,54.0821677 C240.616043,54.4810327 240.632409,54.8630442 240.632409,55.2506735 C240.632409,55.969754 240.599678,56.7731017 240.572402,57.6607167 C240.545126,58.5483317 240.51785,59.5595386 240.48512,60.677484 C240.48512,60.9976995 240.452389,61.4021823 240.425113,61.8853145 C240.397837,62.4077714 240.321465,62.9302283 240.195997,63.4358318 C240.054163,64.0032312 239.846868,64.5481594 239.57411,65.0649985 C239.268622,65.632398 238.854031,66.1380014 238.363068,66.548102 C237.768458,67.036852 237.09202,67.3907745 236.36103,67.6042515 C235.384559,67.8907601 234.375358,68.0199699 233.360701,67.9974986 C232.356954,68.0199699 231.358662,67.8907601 230.393102,67.6211049 C229.673023,67.4132457 228.996585,67.0705589 228.401974,66.5986624 C227.916466,66.211033 227.50733,65.7391365 227.190932,65.1942083 C226.92363,64.7166939 226.710879,64.2110904 226.558135,63.6830157 C226.432667,63.2392082 226.35084,62.7897829 226.312654,62.329122 C226.312654,61.9134036 226.279923,61.6100415 226.279923,61.4078001 C226.279923,60.9415214 226.279923,60.3291794 226.279923,59.5707742 C226.279923,58.812369 226.279923,57.9809322 226.279923,57.0596103 L226.279923,52.8069234 C226.279923,52.5260326 226.269012,52.2507596 226.241737,51.9698688 C226.219916,51.7339205 226.187185,51.4923544 226.132634,51.262024 C226.099903,51.0822538 226.023531,50.9137194 225.914428,50.773274 C225.690767,50.4923831 225.401644,50.2789061 225.074336,50.1553142 C224.703386,50.0204866 224.321526,49.9362193 223.934211,49.8912768 L223.934211,49.6440929 L231.205918,49.6440929 L231.205918,49.8912768 C230.960437,49.9306015 230.714955,49.9811619 230.474929,50.0429578 C230.223992,50.1047538 229.983966,50.2114923 229.76576,50.3575556 C229.547554,50.498001 229.356624,50.6946245 229.220246,50.9193372 C229.062047,51.2114636 228.980219,51.537297 228.974764,51.8743659 C228.974764,52.3125556 228.947489,52.7001849 228.936578,53.0316361 C228.925668,53.3630873 228.936578,53.6945384 228.936578,54.0147539 L228.936578,59.0146104 C228.936578,59.4022397 228.936578,59.7786334 228.936578,60.1381737 C228.936578,60.4977139 228.936578,60.8797254 228.936578,61.2617369 C228.942033,62.0875559 229.072957,62.9077571 229.329349,63.6886335 C229.547554,64.3740071 229.896684,65.0032025 230.354916,65.5481307 C230.796783,66.0649698 231.347752,66.4694526 231.964184,66.7334899 C232.656987,67.0199986 233.398887,67.160444 234.146241,67.1492084 C234.942693,67.1660618 235.739144,67.0537055 236.502864,66.8177572 C237.09202,66.6323693 237.642989,66.3233894 238.112132,65.9132888 C238.537633,65.5425129 238.881307,65.0930876 239.137699,64.5818663 C239.388636,64.070645 239.568655,63.5313347 239.683213,62.9751709 C239.803227,62.3965358 239.885054,61.8179007 239.928695,61.22803 C239.966881,60.6325415 239.988701,60.0482886 239.988701,59.4808892 L239.988701,55.205731 C239.988701,54.868662 239.988701,54.5259752 239.988701,54.1720528 C239.988701,53.8181304 239.988701,53.4866792 239.950515,53.1664637 C239.912329,52.8462482 239.912329,52.5485039 239.879599,52.2732309 C239.857778,52.0485182 239.808682,51.8238056 239.73231,51.6103286 C239.568655,51.1552855 239.274077,50.7620383 238.886762,50.4867653 C238.352158,50.1440785 237.746637,49.9306015 237.119295,49.8688055 L237.119295,49.6216216 L243.207237,49.6216216 L243.207237,49.8688055 C242.694453,49.9306015 242.20349,50.1047538 241.767079,50.3856446 Z" id="Path"/>
                            <path d="M258.426583,67.982925 L258.111797,67.6414253 L257.894704,67.3739171 C257.786157,67.2316256 257.683038,67.0836423 257.590773,66.9242758 L257.020902,66.0477597 C256.711544,65.5696601 256.440177,65.1427854 256.206801,64.761444 C255.973425,64.3801026 255.729195,63.9987612 255.490392,63.6231115 C255.251589,63.2474618 254.980222,62.871812 254.698001,62.484779 C254.415779,62.0977459 254.079284,61.6708712 253.688515,61.1984633 C253.362875,60.8057385 253.015525,60.4357805 252.635612,60.0999724 C252.293689,59.7812393 251.881211,59.5592644 251.430742,59.4625062 C251.197366,59.4055895 250.963991,59.3714396 250.725188,59.3600562 C250.584077,59.3600562 250.39412,59.3600562 250.182454,59.3600562 L250.182454,62.2286542 C250.182454,63.0425619 250.182454,63.7312531 250.182454,64.289036 C250.182454,64.8468189 250.215018,65.302152 250.2313,65.689185 C250.2313,66.0306848 250.323565,66.3664928 250.49724,66.6567676 C250.692624,66.9413508 250.953136,67.1747089 251.25164,67.3340755 C251.734673,67.5902003 252.266552,67.7268002 252.803859,67.7268002 L252.803859,67.982925 L245.042763,67.982925 L245.042763,67.7268002 C245.438959,67.6641919 245.829727,67.561742 246.209641,67.4251421 C246.551564,67.3113088 246.855495,67.1007173 247.083443,66.8104425 C247.181135,66.6738426 247.246263,66.5201677 247.278827,66.3551095 C247.333101,66.127443 247.371092,65.8997765 247.387374,65.6664184 C247.387374,65.4102935 247.430793,65.1370937 247.447075,64.8525106 C247.463357,64.5679275 247.474211,64.2833444 247.474211,64.0101446 C247.474211,63.7369447 247.474211,63.4409783 247.474211,63.0425619 C247.474211,62.6441455 247.474211,62.1888125 247.474211,61.7050212 C247.474211,61.2212299 247.474211,60.7260553 247.474211,60.2138056 L247.474211,53.7708436 C247.474211,53.4634938 247.474211,53.1561441 247.474211,52.837411 C247.474211,52.5186779 247.474211,52.2284031 247.425365,51.9495116 C247.403656,51.6876951 247.365665,51.4315703 247.305964,51.1811372 C247.267972,50.999004 247.19199,50.8282541 247.078016,50.6859625 C246.860922,50.4184544 246.5787,50.2249379 246.263915,50.1167963 C245.90571,50.0086547 245.547506,49.9289714 245.178447,49.8720548 L245.178447,49.6216216 L246.17165,49.6216216 L248.044082,49.6216216 L250.133608,49.6216216 L251.832365,49.6216216 C252.917833,49.6216216 253.8839,49.6557716 254.725137,49.7240715 C255.533811,49.7809882 256.315348,50.0143463 257.031757,50.4127627 C257.726456,50.7827208 258.318036,51.334812 258.757651,52.0064282 C259.218975,52.7634193 259.446923,53.645627 259.414359,54.5392181 C259.425214,55.1254593 259.311239,55.7117006 259.083291,56.2467168 C258.871625,56.7361998 258.573121,57.1858412 258.209489,57.5671825 C257.835003,57.9599073 257.400816,58.2900237 256.934065,58.5518402 C256.445604,58.82504 255.930007,59.0527065 255.403555,59.2348397 L255.403555,59.3145229 C255.702058,59.4909645 255.973425,59.7129393 256.206801,59.9747558 C256.478168,60.2821056 256.727826,60.6008387 256.961201,60.9423384 C257.379106,61.591188 257.84043,62.2855708 258.334318,63.0311786 C258.828206,63.7767864 259.267821,64.4427109 259.658589,65.0175688 C260.130768,65.7688683 260.722348,66.4234095 261.406193,66.9584258 C262.0032,67.3796088 262.687045,67.6471169 263.398026,67.7438752 L263.398026,68 L258.426583,67.982925 Z M256.022272,52.1145698 C255.588084,51.420187 254.969368,50.8737874 254.247531,50.5322876 C253.856763,50.3444628 253.444285,50.2078629 253.020953,50.1281796 C252.575911,50.0428047 252.125442,49.9972714 251.674972,49.9972714 C251.33305,49.9972714 251.061683,49.9972714 250.850017,49.9972714 L250.361556,50.0484963 C250.361556,50.1509462 250.328992,50.2363212 250.31271,50.3160045 C250.296428,50.4127627 250.285573,50.509521 250.280146,50.6062792 C250.280146,50.7258042 250.280146,50.8908624 250.253009,51.1014539 C250.225873,51.3120454 250.253009,51.6193952 250.215018,52.0064282 C250.215018,52.6040528 250.204163,53.275669 250.182454,54.0212768 C250.182454,54.7668846 250.182454,55.4897257 250.182454,56.1841085 L250.182454,58.9900982 C250.844589,58.9900982 251.463306,58.9559482 252.038604,58.8990316 C252.603047,58.842115 253.162063,58.7168984 253.69937,58.5290735 C254.182403,58.3810903 254.632873,58.1477321 255.039923,57.8403823 C255.3927,57.5728742 255.702058,57.2427578 255.946289,56.8614164 C256.190519,56.5028416 256.369621,56.0987336 256.489023,55.6775506 C256.59757,55.2449842 256.65727,54.8010345 256.65727,54.3513932 C256.65727,53.5545604 256.434749,52.7804943 256.022272,52.1145698 L256.022272,52.1145698 Z" id="Shape"/>
                            <path d="M277.859177,50.28734 C277.528504,50.4637269 277.219876,50.685633 276.949826,50.9473684 C276.65222,51.2432432 276.382171,51.5675676 276.145188,51.9146515 C275.891672,52.2901849 275.594066,52.7169275 275.318505,53.1891892 C275.125612,53.5135135 274.850051,53.9516358 274.491822,54.5035562 C274.139104,55.0725462 273.780875,55.6415363 273.389578,56.2105263 L272.31489,57.9174964 C271.967683,58.4864865 271.697634,58.8847795 271.49923,59.1863442 L271.49923,64.3072546 C271.49923,64.802276 271.49923,65.2802276 271.537808,65.7467994 C271.526786,66.0881935 271.609454,66.4295875 271.769279,66.7254623 C271.995239,67.083926 272.336935,67.3456615 272.733743,67.4651494 C273.108506,67.5789474 273.48878,67.6699858 273.869054,67.7439545 L273.869054,68 L266.291127,68 L266.291127,67.7439545 C266.66589,67.7041252 267.035141,67.6244666 267.393371,67.5049787 C267.79569,67.3285917 268.148408,67.0554765 268.418458,66.7027027 C268.51766,66.5775249 268.583794,66.4295875 268.600328,66.2702703 C268.649929,66.0426743 268.682996,65.8150782 268.69953,65.5817923 C268.69953,65.3257468 268.74362,65.0526316 268.749131,64.7681366 C268.754642,64.4836415 268.749131,64.1991465 268.749131,63.9260313 C268.749131,63.4480797 268.776687,62.8847795 268.787709,62.2190612 C268.798732,61.5533428 268.787709,60.7738265 268.787709,59.8406828 C268.754642,59.7894737 268.65544,59.6301565 268.495615,59.3570413 L267.889381,58.3499289 C267.652398,57.9516358 267.38786,57.5078236 267.101276,57.0128023 C266.814693,56.5177809 266.550154,56.0398293 266.247037,55.5732575 C265.94392,55.1066856 265.695915,54.6685633 265.458933,54.2645804 C265.22195,53.8605974 265.007012,53.5248933 264.841676,53.2688478 C264.527536,52.7795164 264.246464,52.3300142 263.992948,51.9203414 C263.761477,51.5504979 263.502449,51.197724 263.215866,50.8733997 C262.984395,50.6173542 262.725367,50.3840683 262.438784,50.1906117 C262.174245,50.0142248 261.87664,49.9174964 261.5625,49.9061166 L261.5625,49.655761 L269.035714,49.655761 L269.035714,49.9061166 C268.787709,49.9061166 268.545216,49.9516358 268.297211,49.9857752 C268.060228,50.0142248 267.828757,50.0711238 267.602797,50.1507824 C267.409904,50.2133713 267.233545,50.3157895 267.084742,50.458037 C266.952473,50.5945946 266.880827,50.7823613 266.89185,50.9758179 C266.935939,51.3342817 267.057186,51.6813656 267.244568,51.9829303 C267.487061,52.4324324 267.735066,52.8876245 267.999605,53.3485064 C268.181475,53.6500711 268.396413,54.0199147 268.638906,54.4523471 C268.8814,54.8847795 269.156961,55.3456615 269.454567,55.829303 C269.752173,56.3129445 270.049779,56.8079659 270.352896,57.3200569 C270.656013,57.8321479 270.942596,58.3100996 271.207135,58.7709815 C271.422073,58.4466572 271.6811,58.0369844 271.995239,57.5362731 C272.309379,57.0355619 272.623518,56.5234708 272.943169,56.0056899 C273.26282,55.487909 273.571448,54.9928876 273.858032,54.514936 C274.144615,54.0369844 274.365064,53.6671408 274.513867,53.3769559 L274.783917,52.9103841 C274.883119,52.7283073 274.976809,52.5462304 275.064989,52.341394 C275.15868,52.1479374 275.235837,51.9487909 275.301971,51.7439545 C275.362595,51.5618777 275.395662,51.3684211 275.401173,51.1749644 C275.412196,50.9416785 275.346061,50.7197724 275.202769,50.5376956 C275.064989,50.3783784 274.88863,50.2588905 274.695737,50.1792319 C274.475288,50.0881935 274.249328,50.0256046 274.017857,49.9857752 L273.301399,49.8719772 L273.301399,49.6216216 L279,49.6216216 L279,49.8719772 C278.603192,49.9459459 278.217407,50.0881935 277.859177,50.28734 Z" id="Path"/>
                            <path d="M189.439468,35.1184964 C189.356376,35.0744479 189.278823,35.0193874 189.20681,34.9588208 C189.489323,34.4082152 189.406231,33.5107281 189.699822,32.9711347 C189.727519,32.404011 189.805072,31.8368872 189.938019,31.2862817 C189.954637,31.2147029 189.993413,31.1486303 190.054347,31.1045818 C190.021111,30.9779425 189.993413,30.8513033 189.976795,30.724664 C190.990516,30.6145429 191.638632,30.8678214 191.527843,31.8809357 C191.921145,31.8809357 191.993158,31.5670905 192.303367,31.4955118 C192.419696,31.8699236 192.358762,32.2718656 192.142723,32.5967229 C192.336604,32.4260352 192.519406,32.2608535 192.696669,32.1011779 C192.984721,31.3358362 193.682693,30.9614244 193.09551,30.3447461 C193.638377,30.5429641 194.059376,30.9614244 194.258796,31.5010178 C195.001084,31.3358362 194.962307,30.3998067 196.197607,30.73017 C196.197607,30.3557583 195.721213,30.427337 195.422083,30.3447461 C195.35007,29.5023196 195.737832,29.1168957 196.585369,29.1829684 C195.8597,28.450663 196.818026,28.4892054 196.585369,27.261355 C195.100794,27.3274277 196.446882,26.9475098 196.197607,26.1050833 C195.405464,25.9894561 195.167267,25.3342355 194.646558,24.9488116 C195.483017,23.2309223 193.776863,22.0526264 193.09551,20.7091488 C191.644172,22.509629 190.214992,20.4448581 189.605651,19.1674532 C188.758114,20.1860735 188.043524,19.6850224 187.67238,18.3966054 C186.4537,18.2204116 186.564489,19.3656712 186.121332,19.9327949 C184.581363,20.1860735 184.027417,19.448262 183.406997,18.7820293 C181.800555,18.7104506 182.227093,20.0649403 180.692663,19.1674532 C180.642808,20.5935216 180.138717,20.1420251 179.141615,19.9327949 C179.961454,20.7476912 178.681839,21.4414542 178.36609,22.2508444 C176.975686,22.3499534 176.94245,21.0945727 175.651756,21.0945727 C175.71269,23.1318133 173.341802,21.8929507 172.161897,21.8654205 C172.217292,23.4181282 171.164795,22.8840408 170.223087,22.6362683 C169.923956,24.4752908 170.477902,24.9157753 171.990174,24.9488116 C170.959835,26.1986863 170.627467,24.0623367 169.442023,24.1779638 C169.126274,26.2427347 168.75513,25.8683229 168.284276,27.6467789 C169.990429,28.0322028 168.395065,28.1973844 168.284276,28.4176267 C168.173487,29.1058836 168.64988,29.2049926 168.672038,28.8030506 C169.541733,28.9627262 168.616644,30.9118699 169.835325,30.73017 C169.519575,31.0825576 169.120734,31.3468483 168.672038,31.5010178 C168.832683,32.3599625 170.727177,31.7983448 170.998611,31.5010178 C171.391912,31.7487903 171.397452,32.3874928 172.161897,32.2718656 C172.926342,31.3743785 172.926342,31.2367272 172.161897,30.3447461 C173.269789,30.3887946 172.832172,31.9965628 174.100707,31.8864417 C174.837455,30.6035308 174.654653,30.631061 174.876232,29.1829684 C175.064573,30.4108188 177.092015,29.8106587 176.815042,31.5010178 C178.083578,31.3964028 178.360551,32.2773717 178.598748,33.196883 C174.028695,32.5196381 169.414326,32.013081 164.750102,31.6717056 C164.672549,34.7110483 133.313676,36.2031893 130.322368,41.3513514 L215.674342,41.3513514 C206.584091,39.3030987 197.914839,36.863916 189.439468,35.1184964 Z M189.589033,28.4121206 C188.885522,29.7611042 189.589033,32.5416623 188.431286,33.4226312 C188.79689,31.7322722 187.47296,28.3625661 189.589033,28.4121206 L189.589033,28.4121206 Z M186.088095,31.4955118 C186.237661,29.9428041 185.367966,29.7831285 186.470318,29.1774624 C186.470318,28.6764113 185.794504,28.8305808 185.700333,28.4121206 C185.999464,28.3295298 186.14349,28.0872633 186.088095,27.6412728 L187.251382,27.6412728 C187.600367,29.9978646 187.727775,32.3819867 187.639144,34.7661088 L186.763909,34.589915 C185.511992,34.3476486 184.254535,34.1219003 182.997078,33.9016581 C183.096788,32.5196381 183.490089,31.7818267 182.997078,30.3392401 C185.035598,29.4582712 184.586902,31.027497 186.088095,31.4955118 Z M181.43495,31.4955118 C181.64545,32.2168051 181.800555,32.9546165 181.883646,33.697934 L180.980715,33.5492705 C180.936399,32.6903258 181.041649,31.7818267 181.451569,31.4955118 L181.43495,31.4955118 Z" id="Shape"/>
                            <path d="M144.550123,31.1075538 C145.630176,28.9494974 145.190361,25.2690911 148.720019,25.5590625 C148.163291,22.2745787 152.093793,23.445617 152.461234,21.0589293 C152.895482,23.8471159 152.533609,23.8080813 153.958834,26.3062965 C156.402871,26.5070459 155.54551,23.3954297 157.700049,23.3062077 C156.219151,25.0460361 156.219151,25.3137021 157.700049,27.0591069 C159.169812,27.2821618 159.186514,26.044207 159.926962,25.5590625 C160.450287,26.1166998 164.102426,27.2319744 164.414193,25.5590625 C163.556832,25.2579383 162.788546,24.7393356 162.18728,24.0590181 C164.547808,24.415906 162.744008,20.6239722 164.414193,20.3116953 C164.458732,21.0979639 165.377334,20.9027909 165.165777,19.5588849 C164.95422,19.1573861 161.869945,18.8172273 165.165777,18.0644169 C164.25831,14.6014892 163.54013,15.3375704 162.938863,11.3170054 C160.667411,11.0939504 158.952688,15.2204666 156.954033,12.8114734 C159.876857,12.7501333 162.020261,11.8969482 161.441264,8.31691659 C159.615194,8.80206105 157.588703,9.83369009 157.700049,6.8168722 C155.423029,6.86705956 150.841154,9.28162915 150.963635,5.32240418 C148.469491,5.32240418 148.408251,7.75927927 145.72482,7.55295346 C145.106852,5.97483985 142.646112,4.62535754 144.227221,3.0528203 C142.328777,3.43759005 141.326666,4.32980976 141.232022,1.55277591 C138.264659,3.28702797 139.088617,0.666132573 135.993207,0.805541902 C134.796241,2.09926048 133.73289,3.53238839 130.754393,3.03609118 C129.869195,1.92081654 130.114155,-0.309732735 127.764761,0.0360024023 C127.041014,2.53979396 125.665895,3.51565927 124.023546,1.53604679 C122.843282,4.01195649 120.093043,8.03809793 117.287132,4.53613556 C115.967686,7.14587822 112.677421,9.44892034 114.291933,12.7780151 C113.295389,13.5252491 112.82217,14.807815 111.302301,15.0085644 C110.823515,16.6424418 113.41787,17.3952521 110.550718,17.2391137 C110.105335,19.6313778 111.953674,19.5588849 110.550718,20.9864365 C112.181932,20.8526035 112.927949,21.5942611 112.777632,23.2169857 C112.220903,23.3842769 111.302301,23.2169857 111.2856,23.9697961 C113.668397,23.3340896 113.596023,25.1519872 115.026815,25.4698405 C115.410957,24.4382115 116.223781,23.624061 117.253728,23.2392912 C116.140272,24.4437878 117.465285,25.1742927 118.022014,26.6631844 C118.339349,26.9698849 118.690088,27.2988909 119.057528,27.6223206 C118.645549,26.9921904 118.534204,26.2114981 118.751328,25.492146 C119.358162,25.6315553 119.491777,26.2449564 120.24336,26.23938 C120.020669,24.2653439 121.284442,23.7801994 123.244126,24.0088307 C123.21629,24.2597675 123.166184,24.5107043 123.09381,24.7560647 C123.210723,24.834134 123.288665,24.9568142 123.310934,25.0962235 C123.567029,26.1724635 123.722913,27.2765854 123.778586,28.3807073 C124.335314,29.4234891 124.184997,31.1688939 124.736158,32.2507103 C124.608111,32.3622378 124.463362,32.4570361 124.313045,32.5406817 C108.16792,34.3808849 91.4660676,37.0519676 75.7997297,39.2323295 C70.3326565,40.0074454 64.9602272,40.7323739 59.6546053,41.3513514 L106.915281,41.3513514 C121.512701,36.4608721 159.175379,34.486836 163.250631,31.4421362 C157.176724,31.0796719 150.974769,30.9625681 144.550123,31.1075538 Z M139.73999,25.5590625 C140.786639,26.3007201 140.803341,29.2171633 140.391362,31.2413868 L138.893762,31.3083032 C138.671071,29.3956072 139.456058,26.7301009 139.762259,25.5590625 L139.73999,25.5590625 Z M124.045815,19.5588849 C128.132202,19.469663 125.576818,26.0274778 126.272729,29.3063853 C124.001277,27.6000151 125.404233,22.1909331 124.045815,19.5588849 Z M128.533046,18.0644169 L130.75996,18.0644169 C130.63748,18.9287548 130.926979,19.3971701 131.505976,19.5588849 C131.327823,20.3730354 130.025079,20.0719113 130.013944,21.0589293 C132.151781,22.2299677 130.470461,22.5422446 130.75996,25.5590625 C133.682784,24.6445373 132.819855,21.5998375 136.750358,23.3285132 C135.636901,26.5126223 136.750358,27.9457502 136.750358,31.4421362 C135.993207,31.4811708 135.241624,31.5202054 134.473339,31.5703928 L134.473339,31.5703928 C134.473339,31.5703928 134.445502,31.5703928 134.434368,31.5703928 L134.434368,31.5703928 C132.207454,31.7711422 129.98054,31.9886208 127.753627,32.2284048 C127.597743,26.7802882 128.020856,20.635125 128.533046,18.0644169 Z" id="Shape"/>
                        </g>
                    </g>
                </g>
            </g>
        </g>
    </g>
</svg>