<svg xmlns="http://www.w3.org/2000/svg" xmlns:xlink="http://www.w3.org/1999/xlink" width="28" height="28" viewBox="0 0 28 28" version="1.1">
    <!-- Generator: Sketch 63.1 (92452) - https://sketch.com -->
    <title>Social - Twitter - Colour</title>
    <desc>Created with Sketch.</desc>
    <g id="Comp-tile-3" stroke="none" stroke-width="1" fill="none" fill-rule="evenodd">
        <g id="Mobile---V2" transform="translate(-154.000000, -6932.000000)">
            <g id="footer" transform="translate(-165.000000, 6920.000000)">
                <g id="Social-Media-Copy">
                    <g id="Social---Twitter---Colour" transform="translate(319.000000, 12.000000)">
                        <rect id="Rectangle" fill="#00AAEC" x="0" y="0" width="28" height="28" rx="1"/>
                        <path d="M21,9.78112435 C20.4855902,10.0153846 19.9317368,10.1738052 19.350766,10.2445889 C19.9440629,9.88055857 20.3993074,9.30333454 20.6137818,8.61572168 C20.0582849,8.95278681 19.4444444,9.19800169 18.7886952,9.32945708 C18.266068,8.75728903 17.5191055,8.4 16.6924341,8.4 C15.1072959,8.4 13.8212714,9.7187673 13.8212714,11.3451065 C13.8212714,11.5759961 13.8459236,11.8001445 13.895228,12.0158661 C11.5080707,11.8928374 9.39208781,10.7215361 7.97458473,8.93761888 C7.72724071,9.37411821 7.58590127,9.88055857 7.58590127,10.4198628 C7.58590127,11.4411701 8.09291542,12.3428193 8.8637084,12.8711689 C8.39367259,12.8568436 7.9499325,12.7228602 7.56207079,12.5037679 L7.56207079,12.5400024 C7.56207079,13.9674732 8.55226859,15.1581558 9.86705406,15.4278079 C9.62628397,15.4969062 9.37236603,15.5314554 9.11023067,15.5314554 C8.92533897,15.5314554 8.74455597,15.5137595 8.56952515,15.4792103 C8.93519986,16.6488263 9.99524564,17.5007584 11.2525092,17.5235103 C10.2697071,18.313928 9.03052181,18.7849765 7.68533192,18.7849765 C7.45360099,18.7849765 7.22433527,18.7714939 7,18.7445287 C8.2712332,19.5787649 9.781593,20.0666667 11.4028878,20.0666667 C16.6866819,20.0666667 19.5751013,15.5794872 19.5751013,11.6872276 C19.5751013,11.5591429 19.572636,11.4310581 19.5677056,11.3055014 C20.1289546,10.8900686 20.616247,10.371831 21,9.78112435" id="Twitter" fill="#FFFFFF"/>
                    </g>
                </g>
            </g>
        </g>
    </g>
</svg>