<svg xmlns="http://www.w3.org/2000/svg" xmlns:xlink="http://www.w3.org/1999/xlink" width="28" height="28" viewBox="0 0 28 28" version="1.1">
    <!-- Generator: Sketch 63.1 (92452) - https://sketch.com -->
    <title>Social - YT - Colour</title>
    <desc>Created with Sketch.</desc>
    <g id="Comp-tile-3" stroke="none" stroke-width="1" fill="none" fill-rule="evenodd">
        <g id="Mobile---V2" transform="translate(-194.000000, -6932.000000)">
            <g id="footer" transform="translate(-165.000000, 6920.000000)">
                <g id="Social-Media-Copy">
                    <g id="Social---YT---Colour" transform="translate(359.000000, 12.000000)">
                        <rect id="Rectangle" fill="#CE1312" x="0" y="0" width="28" height="28" rx="1"/>
                        <path d="M12.5545,15.8870588 L12.5540625,11.9255913 L16.3366875,13.9131544 L12.5545,15.8870588 Z M20.86,11.2391308 C20.86,11.2391308 20.7230625,10.2675997 20.3035,9.83977355 C19.7710625,9.27800388 19.1743125,9.27536026 18.900875,9.24275559 C16.94175,9.1 14.0030625,9.1 14.0030625,9.1 L13.9969375,9.1 C13.9969375,9.1 11.05825,9.1 9.099125,9.24275559 C8.82525,9.27536026 8.2289375,9.27800388 7.6960625,9.83977355 C7.2765,10.2675997 7.14,11.2391308 7.14,11.2391308 C7.14,11.2391308 7,12.3802943 7,13.5210172 L7,14.5908029 C7,15.7319664 7.14,16.8726892 7.14,16.8726892 C7.14,16.8726892 7.2765,17.8442203 7.6960625,18.2720465 C8.2289375,18.8338161 8.9285,18.816192 9.24,18.8747923 C10.36,18.9831808 14,19.0166667 14,19.0166667 C14,19.0166667 16.94175,19.0122606 18.900875,18.869505 C19.1743125,18.8364598 19.7710625,18.8338161 20.3035,18.2720465 C20.7230625,17.8442203 20.86,16.8726892 20.86,16.8726892 C20.86,16.8726892 21,15.7319664 21,14.5908029 L21,13.5210172 C21,12.3802943 20.86,11.2391308 20.86,11.2391308 L20.86,11.2391308 Z" id="Youtube" fill="#FFFFFF"/>
                    </g>
                </g>
            </g>
        </g>
    </g>
</svg>