<svg xmlns="http://www.w3.org/2000/svg" xmlns:xlink="http://www.w3.org/1999/xlink" width="28" height="28" viewBox="0 0 28 28" version="1.1">
    <!-- Generator: Sketch 63.1 (92452) - https://sketch.com -->
    <title>Social - Instagram - Colour</title>
    <desc>Created with Sketch.</desc>
    <defs>
        <linearGradient x1="50%" y1="0%" x2="50%" y2="100%" id="linearGradient-1">
            <stop stop-color="#9247B6" offset="0%"/>
            <stop stop-color="#C937A7" offset="25.8529133%"/>
            <stop stop-color="#F42F89" offset="51.8550084%"/>
            <stop stop-color="#FD5E48" offset="76.2676359%"/>
            <stop stop-color="#FEA847" offset="100%"/>
        </linearGradient>
    </defs>
    <g id="Comp-tile-3" stroke="none" stroke-width="1" fill="none" fill-rule="evenodd">
        <g id="Mobile---V2" transform="translate(-114.000000, -6932.000000)">
            <g id="footer" transform="translate(-165.000000, 6920.000000)">
                <g id="Social-Media-Copy">
                    <g id="Social---Instagram---Colour" transform="translate(279.000000, 12.000000)">
                        <rect id="Rectangle" fill="url(#linearGradient-1)" x="0" y="0" width="28" height="28" rx="1"/>
                        <path d="M14.8851157,7.00090704 C16.0045712,7.00378999 16.2752165,7.01425197 16.886091,7.0421244 C17.6311594,7.07610734 18.1400144,7.19445023 18.585266,7.36750483 C19.0455779,7.54636681 19.435951,7.7857201 19.8251294,8.17487064 C20.2142799,8.56404898 20.4536332,8.95442213 20.632523,9.41473401 C20.8055498,9.85998559 20.9238927,10.3688406 20.9578756,11.113909 C20.9919419,11.8605334 21,12.0989141 21,14.0000139 C21,15.9010859 20.9919419,16.1394666 20.9578756,16.886091 C20.9238927,17.6311594 20.8055498,18.1400144 20.632523,18.585266 C20.4536332,19.0455779 20.2142799,19.435951 19.8251294,19.8251294 C19.435951,20.2142799 19.0455779,20.4536332 18.585266,20.632523 C18.1400144,20.8055498 17.6311594,20.9238927 16.886091,20.9578756 C16.1394666,20.9919419 15.9010859,21 14.0000139,21 C12.0989141,21 11.8605334,20.9919419 11.113909,20.9578756 C10.3688406,20.9238927 9.85998559,20.8055498 9.41473401,20.632523 C8.95442213,20.4536332 8.56404898,20.2142799 8.17487064,19.8251294 C7.7857201,19.435951 7.54636681,19.0455779 7.36750483,18.585266 C7.19445023,18.1400144 7.07610734,17.6311594 7.0421244,16.886091 C7.01425197,16.2752165 7.00378999,16.0045712 7.00090704,14.8851157 L7.00090704,13.1148995 C7.00378999,11.9954288 7.01425197,11.7247835 7.0421244,11.113909 C7.07610734,10.3688406 7.19445023,9.85998559 7.36750483,9.41473401 C7.54636681,8.95442213 7.7857201,8.56404898 8.17487064,8.17487064 C8.56404898,7.7857201 8.95442213,7.54636681 9.41473401,7.36750483 C9.85998559,7.19445023 10.3688406,7.07610734 11.113909,7.0421244 C11.7247835,7.01425197 11.9954288,7.00378999 13.1148995,7.00090704 Z M14.6782035,8.26170656 L13.3218144,8.26170656 C12.0609332,8.26370003 11.8088681,8.27299251 11.1713993,8.30207744 C10.4889062,8.33319837 10.1182615,8.44723435 9.87160037,8.54309792 C9.5448584,8.67008243 9.31167372,8.82176917 9.06673534,9.06673534 C8.82176917,9.31167372 8.67008243,9.5448584 8.54309792,9.87160037 C8.44723435,10.1182615 8.33319837,10.4889062 8.30207744,11.1713993 C8.27299251,11.8088681 8.26370003,12.0609332 8.26170656,13.3218144 L8.26170656,14.6782035 C8.26370003,15.9390668 8.27299251,16.1911319 8.30207744,16.8286007 C8.33319837,17.5110938 8.44723435,17.8817385 8.54309792,18.1283996 C8.67008243,18.4551416 8.82179696,18.6883263 9.06673534,18.9332647 C9.31167372,19.1782308 9.5448584,19.3299176 9.87160037,19.4569021 C10.1182615,19.5527657 10.4889062,19.6668016 11.1713993,19.6979226 C11.8087961,19.7270075 12.0608099,19.7363 13.321768,19.7382934 L14.6782512,19.7382934 C15.9391967,19.7363 16.1912279,19.7270075 16.8286007,19.6979226 C17.5110938,19.6668016 17.8817385,19.5527657 18.1283996,19.4569021 C18.4551416,19.3299176 18.6883263,19.1782308 18.9332647,18.9332647 C19.1782308,18.6883263 19.3299176,18.4551416 19.4569021,18.1283996 C19.5527657,17.8817385 19.6668016,17.5110938 19.6979226,16.8286007 C19.7270075,16.1911319 19.7363,15.9390668 19.7382934,14.6782035 L19.7382934,13.3218144 C19.7363,12.0609332 19.7270075,11.8088681 19.6979226,11.1713993 C19.6668016,10.4889062 19.5527657,10.1182615 19.4569021,9.87160037 C19.3299176,9.5448584 19.1782308,9.31167372 18.9332647,9.06673534 C18.6883263,8.82176917 18.4551416,8.67008243 18.1283996,8.54309792 C17.8817385,8.44723435 17.5110938,8.33319837 16.8286007,8.30207744 C16.1911319,8.27299251 15.9390668,8.26370003 14.6782035,8.26170656 Z M14.0000139,10.4054077 C15.9852513,10.4054077 17.5945923,12.0147487 17.5945923,14.0000139 C17.5945923,15.9852513 15.9852513,17.5945923 14.0000139,17.5945923 C12.0147487,17.5945923 10.4054077,15.9852513 10.4054077,14.0000139 C10.4054077,12.0147487 12.0147487,10.4054077 14.0000139,10.4054077 Z M14.0000139,11.6666667 C12.7113296,11.6666667 11.6666667,12.7113296 11.6666667,14.0000139 C11.6666667,15.2886704 12.7113296,16.3333333 14.0000139,16.3333333 C15.2886704,16.3333333 16.3333333,15.2886704 16.3333333,14.0000139 C16.3333333,12.7113296 15.2886704,11.6666667 14.0000139,11.6666667 Z M17.7366094,9.42337563 C18.2005335,9.42337563 18.5766244,9.7994665 18.5766244,10.2633906 C18.5766244,10.7273148 18.2005335,11.1033779 17.7366094,11.1033779 C17.272713,11.1033779 16.8966221,10.7273148 16.8966221,10.2633906 C16.8966221,9.7994665 17.272713,9.42337563 17.7366094,9.42337563 Z" id="Instagram" fill="#FFFFFF"/>
                    </g>
                </g>
            </g>
        </g>
    </g>
</svg>