<svg xmlns="http://www.w3.org/2000/svg" xmlns:xlink="http://www.w3.org/1999/xlink" width="28" height="28" viewBox="0 0 28 28" version="1.1">
    <!-- Generator: Sketch 63.1 (92452) - https://sketch.com -->
    <title>Social - LinkedIn - Colour</title>
    <desc>Created with Sketch.</desc>
    <g id="Comp-tile-3" stroke="none" stroke-width="1" fill="none" fill-rule="evenodd">
        <g id="Mobile---V2" transform="translate(-234.000000, -6932.000000)">
            <g id="footer" transform="translate(-165.000000, 6920.000000)">
                <g id="Social-Media-Copy">
                    <g id="Social---LinkedIn---Colour" transform="translate(399.000000, 12.000000)">
                        <rect id="Rectangle" fill="#007EBB" x="0" y="0" width="28" height="28" rx="1"/>
                        <path d="M21,20.4272727 L17.905809,20.4272727 L17.905809,15.9531274 C17.905809,14.782026 17.4218015,13.9825476 16.3574788,13.9825476 C15.5433913,13.9825476 15.0906632,14.5220529 14.8799389,15.0419991 C14.8009172,15.2286256 14.8132643,15.4885987 14.8132643,15.7485718 L14.8132643,20.4272727 L11.7478833,20.4272727 C11.7478833,20.4272727 11.7873942,12.5017603 11.7478833,11.7813333 L14.8132643,11.7813333 L14.8132643,13.1382462 C14.9943556,12.5449533 15.9738946,11.6982071 17.5370414,11.6982071 C19.4763641,11.6982071 21,12.9418402 21,15.6198077 L21,20.4272727 L21,20.4272727 Z M8.64793039,10.6998778 L8.62817498,10.6998778 C7.64040452,10.6998778 7,10.038943 7,9.20116132 C7,8.3470804 7.65933678,7.7 8.66686265,7.7 C9.67356538,7.7 10.2925682,8.34545047 10.3123236,9.19871643 C10.3123236,10.0364981 9.67356538,10.6998778 8.64793039,10.6998778 L8.64793039,10.6998778 L8.64793039,10.6998778 Z M7.35312794,11.7813333 L10.0818438,11.7813333 L10.0818438,20.4272727 L7.35312794,20.4272727 L7.35312794,11.7813333 L7.35312794,11.7813333 Z" id="LinkedIn" fill="#FFFFFF"/>
                    </g>
                </g>
            </g>
        </g>
    </g>
</svg>