<svg xmlns:xlink="http://www.w3.org/1999/xlink" xmlns="http://www.w3.org/2000/svg" version="1.1" width="1024" height="1024" viewBox="0 0 1024 1024">
<title/>
<g id="icomoon-ignore">
</g>
<path fill="#fff" d="M982.87 864.112l-188.537-188.537c-8.51-8.51-20.045-13.237-32.148-13.237h-30.824c52.193-66.754 83.206-150.716 83.206-242.054 0-217.281-176.056-393.337-393.337-393.337s-393.337 176.056-393.337 393.337c0 217.281 176.056 393.337 393.337 393.337 91.337 0 175.3-31.013 242.054-83.206v30.824c0 12.103 4.728 23.638 13.237 32.148l188.537 188.537c17.776 17.776 46.52 17.776 64.106 0l53.517-53.517c17.776-17.776 17.776-46.52 0.189-64.295zM421.23 662.338c-133.697 0-242.054-108.168-242.054-242.054 0-133.697 108.168-242.054 242.054-242.054 133.697 0 242.054 108.168 242.054 242.054 0 133.697-108.168 242.054-242.054 242.054z"/>
</svg>